<svg width="443" height="620" viewBox="0 0 443 620" fill="none" xmlns="http://www.w3.org/2000/svg">
<g clip-path="url(#clip0)">
<path fill-rule="evenodd" clip-rule="evenodd" d="M172.896 548.722C172.896 553.564 177.902 557.489 184.077 557.489C190.252 557.489 195.258 553.564 195.258 548.722C195.258 543.88 190.252 539.955 184.077 539.955C177.902 539.955 172.896 543.88 172.896 548.722" fill="#B6D4FF"/>
<path fill-rule="evenodd" clip-rule="evenodd" d="M89.2591 548.722C89.2591 553.564 94.2655 557.489 100.441 557.489C106.616 557.489 111.621 553.564 111.621 548.722C111.621 543.88 106.616 539.955 100.441 539.955C94.2655 539.955 89.2591 543.88 89.2591 548.722" fill="#B6D4FF"/>
<path fill-rule="evenodd" clip-rule="evenodd" d="M197.823 441.431H86.3078V431.924H197.823V441.431Z" fill="#ECF6FF"/>
<path fill-rule="evenodd" clip-rule="evenodd" d="M71.6009 441.431H123.534L133.153 392.66V355.027C133.153 336.701 114.205 321.843 90.8294 321.843C67.4545 321.843 48.5056 336.701 48.5056 355.027V392.66L43.387 416.025C41.0085 429.452 54.311 441.431 71.6009 441.431" fill="#ECF6FF"/>
<path fill-rule="evenodd" clip-rule="evenodd" d="M124.045 438.414H156.757C139.571 438.414 126.316 426.573 128.502 413.244L124.045 438.414Z" fill="#ECF6FF"/>
<path fill-rule="evenodd" clip-rule="evenodd" d="M107.453 354.491C107.453 361.188 100.526 366.618 91.9852 366.618C91.562 366.618 91.1387 366.603 90.7283 366.578C90.4006 366.558 90.08 366.528 89.7593 366.487C82.2757 365.648 76.5242 360.595 76.5242 354.491C76.5242 348.392 82.2757 343.339 89.7593 342.499C90.08 342.459 90.4006 342.429 90.7283 342.409C91.1387 342.384 91.562 342.368 91.9852 342.368C100.526 342.368 107.453 347.799 107.453 354.491" fill="#B6D4FF"/>
<path fill-rule="evenodd" clip-rule="evenodd" d="M102.983 354.491C102.983 360.59 97.2368 365.638 89.7595 366.488C82.2759 365.648 76.5237 360.595 76.5237 354.491C76.5237 348.392 82.2759 343.339 89.7595 342.499C97.2368 343.349 102.983 348.397 102.983 354.491" fill="white"/>
<path fill-rule="evenodd" clip-rule="evenodd" d="M70.8683 550.48H181.364C185.596 550.48 189.059 547.765 189.059 544.447C189.059 541.128 185.596 538.413 181.364 538.413H70.8683C66.6353 538.413 63.1731 541.128 63.1731 544.447C63.1731 547.765 66.6353 550.48 70.8683 550.48" fill="#CCE3FF"/>
<path fill-rule="evenodd" clip-rule="evenodd" d="M129.619 547.611H122.614V441.431H129.619V547.611Z" fill="#CCE3FF"/>
<path fill-rule="evenodd" clip-rule="evenodd" d="M87.2613 441.431L126.116 455.305L164.97 441.431H87.2613Z" fill="#CCE3FF"/>
<path fill-rule="evenodd" clip-rule="evenodd" d="M130.835 550.48H145.173C149.406 550.48 152.868 547.765 152.868 544.447C152.868 541.128 149.406 538.413 145.173 538.413H130.835C126.602 538.413 123.14 541.128 123.14 544.447C123.14 547.765 126.602 550.48 130.835 550.48" fill="#B6D4FF"/>
<path fill-rule="evenodd" clip-rule="evenodd" d="M140.24 548.722C140.24 553.564 145.246 557.489 151.422 557.489C157.597 557.489 162.602 553.564 162.602 548.722C162.602 543.88 157.597 539.955 151.422 539.955C145.246 539.955 140.24 543.88 140.24 548.722" fill="#B6D4FF"/>
<path fill-rule="evenodd" clip-rule="evenodd" d="M56.2337 548.722C56.2337 553.564 61.2401 557.489 67.4155 557.489C73.5903 557.489 78.596 553.564 78.596 548.722C78.596 543.88 73.5903 539.955 67.4155 539.955C61.2401 539.955 56.2337 543.88 56.2337 548.722" fill="#B6D4FF"/>
<path fill-rule="evenodd" clip-rule="evenodd" d="M103.653 433.386H193.071C198.819 433.386 203.48 429.732 203.48 425.226V425.225C203.48 420.718 198.819 417.065 193.071 417.065H103.653C97.9035 417.065 93.2441 420.718 93.2441 425.225V425.226C93.2441 429.732 97.9035 433.386 103.653 433.386" fill="#CCE3FF"/>
<path fill-rule="evenodd" clip-rule="evenodd" d="M67.7133 433.386H120.917C126.666 433.386 131.325 429.732 131.325 425.226V425.225C131.325 420.718 126.666 417.065 120.917 417.065H67.7133C61.9649 417.065 57.3048 420.718 57.3048 425.225V425.226C57.3048 429.732 61.9649 433.386 67.7133 433.386" fill="#B6D4FF"/>
<path fill-rule="evenodd" clip-rule="evenodd" d="M227.449 499.077H240.14V457.838H227.449V499.077Z" fill="#DCEEFF"/>
<path fill-rule="evenodd" clip-rule="evenodd" d="M333.163 499.077H345.854V457.838H333.163V499.077Z" fill="#DCEEFF"/>
<path fill-rule="evenodd" clip-rule="evenodd" d="M272.463 499.077H285.154V457.838H272.463V499.077Z" fill="#B6D4FF"/>
<path fill-rule="evenodd" clip-rule="evenodd" d="M378.177 499.077H390.868V457.838H378.177V499.077Z" fill="#B6D4FF"/>
<path fill-rule="evenodd" clip-rule="evenodd" d="M272.39 465.155H390.794V114.843H272.39V465.155Z" fill="#B6D4FF"/>
<path fill-rule="evenodd" clip-rule="evenodd" d="M227.687 465.155H346.093V114.843H227.687V465.155Z" fill="#DCEEFF"/>
<path fill-rule="evenodd" clip-rule="evenodd" d="M308.266 91.0219C308.266 101.087 302.95 109.919 294.975 114.843H265.701C257.726 109.919 252.41 101.087 252.41 91.0219C252.41 86.3379 253.562 81.928 255.593 78.0554H305.083C307.114 81.928 308.266 86.3379 308.266 91.0219" fill="#DCEEFF"/>
<path fill-rule="evenodd" clip-rule="evenodd" d="M315.691 114.837H327.761V68.72H315.691V114.837Z" fill="#DCEEFF"/>
<path fill-rule="evenodd" clip-rule="evenodd" d="M303.62 114.837H315.69V68.72H303.62V114.837Z" fill="#CCE3FF"/>
<path fill-rule="evenodd" clip-rule="evenodd" d="M327.761 114.837H339.831V68.72H327.761V114.837Z" fill="#CCE3FF"/>
<path fill-rule="evenodd" clip-rule="evenodd" d="M372.255 114.837H339.831V68.72H372.255C373.61 68.72 374.708 69.8179 374.708 71.1732V112.384C374.708 113.738 373.61 114.837 372.255 114.837" fill="#B6D4FF"/>
<path fill-rule="evenodd" clip-rule="evenodd" d="M350.468 87.0494H364.071V82.4831H350.468V87.0494Z" fill="#CCE3FF"/>
<path fill-rule="evenodd" clip-rule="evenodd" d="M238.287 453.612H335.539V352.784H238.287V453.612Z" fill="#CCE3FF"/>
<path fill-rule="evenodd" clip-rule="evenodd" d="M238.287 453.612H271.839V352.784H238.287V453.612Z" fill="#B6D4FF"/>
<path fill-rule="evenodd" clip-rule="evenodd" d="M238.287 340.271H335.539V239.444H238.287V340.271Z" fill="#CCE3FF"/>
<path fill-rule="evenodd" clip-rule="evenodd" d="M238.287 340.271H271.839V239.444H238.287V340.271Z" fill="#B6D4FF"/>
<path fill-rule="evenodd" clip-rule="evenodd" d="M238.287 226.931H335.539V126.103H238.287V226.931Z" fill="#CCE3FF"/>
<path fill-rule="evenodd" clip-rule="evenodd" d="M238.287 226.931H271.839V126.103H238.287V226.931Z" fill="#B6D4FF"/>
<path fill-rule="evenodd" clip-rule="evenodd" d="M261.573 453.612H271.198V416.835H261.573V453.612Z" fill="#DCEEFF"/>
<path fill-rule="evenodd" clip-rule="evenodd" d="M251.947 453.612H261.573V416.835H251.947V453.612Z" fill="#CCE3FF"/>
<path fill-rule="evenodd" clip-rule="evenodd" d="M271.198 453.612H280.823V416.835H271.198V453.612Z" fill="#CCE3FF"/>
<path fill-rule="evenodd" clip-rule="evenodd" d="M306.183 453.612H280.823V416.835H306.183C307.538 416.835 308.637 417.934 308.637 419.288V451.158C308.637 452.513 307.538 453.612 306.183 453.612" fill="#B6D4FF"/>
<path fill-rule="evenodd" clip-rule="evenodd" d="M284.945 425.834H304.515V422.193H284.945V425.834Z" fill="#CCE3FF"/>
<path fill-rule="evenodd" clip-rule="evenodd" d="M289.306 431.452H300.154V427.811H289.306V431.452Z" fill="#CCE3FF"/>
<path fill-rule="evenodd" clip-rule="evenodd" d="M295.264 211.316C294.517 217.588 291.341 223.118 286.702 226.931H256.363C251.724 223.118 248.547 217.588 247.797 211.316H295.264Z" fill="#DCEEFF"/>
<path fill-rule="evenodd" clip-rule="evenodd" d="M295.264 198.28C293.852 210.134 283.764 219.33 271.531 219.33C259.297 219.33 249.21 210.134 247.798 198.28H295.264Z" fill="#DCEEFF"/>
<path fill-rule="evenodd" clip-rule="evenodd" d="M295.264 185.264C294.517 191.536 291.341 197.066 286.702 200.879H256.363C251.724 197.066 248.547 191.536 247.797 185.264H295.264Z" fill="#DCEEFF"/>
<path fill-rule="evenodd" clip-rule="evenodd" d="M295.264 172.228C293.852 184.082 283.764 193.278 271.531 193.278C259.297 193.278 249.21 184.082 247.798 172.228H295.264Z" fill="#DCEEFF"/>
<path fill-rule="evenodd" clip-rule="evenodd" d="M279.635 316.05C279.635 325.281 278.651 333.723 277.01 340.271H259.818C258.181 333.723 257.193 325.281 257.193 316.05" fill="#ECF6FF"/>
<path d="M278.784 320.106C282.682 320.876 285.219 324.661 284.449 328.56C283.679 332.459 279.895 334.996 275.997 334.226" stroke="#ECF6FF" stroke-width="8"/>
<path fill-rule="evenodd" clip-rule="evenodd" d="M314.073 316.05C314.073 325.281 313.089 333.723 311.448 340.271H294.256C292.619 333.723 291.631 325.281 291.631 316.05" fill="#ECF6FF"/>
<path d="M309.495 320.106C313.393 320.876 315.93 324.661 315.16 328.56C314.39 332.459 310.606 334.996 306.708 334.226" stroke="#ECF6FF" stroke-width="8"/>
<path d="M84.2478 211.28C61.9195 214.391 71.2742 240.081 77.5499 253.952C84.9163 270.233 78.4636 281.149 78.4636 281.149L43.9491 268.908C56.6165 252.815 42.6268 243.853 46.0708 224.665C49.1601 207.453 65.9288 199.688 76.5236 200.054C81.8122 200.237 86.1403 201.597 89.5665 203.342C89.6968 203.408 89.8211 203.479 89.9395 203.554C96.1987 197.133 104.863 193.296 114.876 193.296C135.468 193.296 153.969 209.525 153.969 231.076C153.969 252.626 137.277 270.096 116.684 270.096C96.0914 270.096 79.3979 252.626 79.3979 231.076C79.3979 223.71 81.1367 216.967 84.2478 211.28V211.28Z" fill="#19141E"/>
<path fill-rule="evenodd" clip-rule="evenodd" d="M120.326 271.126C120.326 271.126 112.669 271.352 109.406 269.572L119.92 276.165L120.326 271.126Z" fill="#CF3E83"/>
<path d="M148.871 242.297C147.723 251.172 144.745 263.678 137.391 268.563C133.488 271.154 126.383 271.473 120.325 271.124L118.939 288.308L99.173 280.18C99.173 280.18 101.074 261.216 101.897 253.946C97.9241 250.349 91.1552 248.681 91.1433 242.571C91.1433 240.453 92.3809 236.791 96.9524 236.78C103.087 236.774 102.211 244.12 102.211 244.12C102.971 244.415 103.733 244.398 104.493 244.127C110.567 243.875 127.463 241.334 138.951 221.725C140.291 228.326 143.078 236.553 148.871 242.297V242.297Z" fill="#ED4848"/>
<path fill-rule="evenodd" clip-rule="evenodd" d="M136.971 244.104L141.353 254.717L136.27 254.615L136.971 244.104Z" fill="#405FD3"/>
<path fill-rule="evenodd" clip-rule="evenodd" d="M132.306 244.565C132.197 246.685 130.949 248.336 129.518 248.254C128.088 248.172 127.016 246.386 127.126 244.266C127.235 242.146 128.483 240.495 129.914 240.577C131.344 240.659 132.415 242.445 132.306 244.565" fill="#0D0B6D"/>
<path fill-rule="evenodd" clip-rule="evenodd" d="M145.741 244.226C145.631 246.346 144.383 247.998 142.953 247.915C141.522 247.833 140.451 246.048 140.56 243.928C140.669 241.808 141.917 240.156 143.348 240.238C144.778 240.32 145.849 242.106 145.741 244.226" fill="#0D0B6D"/>
<path d="M135.023 259.698C135.023 259.698 131.71 260.766 128.391 257.079" stroke="#1C295E" stroke-width="3"/>
<path opacity="0.402786" fill-rule="evenodd" clip-rule="evenodd" d="M120.314 271.126C120.314 271.126 112.657 271.352 109.393 269.571L119.907 276.165L120.314 271.126Z" fill="black"/>
<path fill-rule="evenodd" clip-rule="evenodd" d="M89.5463 367.615L85.4545 367.555C85.4545 367.555 85.4605 367.491 85.4658 367.355C86.8751 367.455 88.2377 367.538 89.5463 367.615" fill="#C83820"/>
<path d="M172.922 411.909L159.414 413.6L137.659 379.611L136.865 368.313L103.722 367.822L89.5758 367.615H89.5462C88.2375 367.537 86.875 367.455 85.4663 367.355C67.6483 366.112 42.9612 362.651 41.2677 353.069C38.1944 335.713 61.4424 302.032 64.1901 298.127C64.3618 297.885 64.45 297.755 64.45 297.755C68.3464 292.194 72.2671 287.87 75.9266 285.569C83.0443 281.091 89.7179 280.109 96.0599 280.127L97.7588 267.829L123.631 271.395L122.221 281.618C129.819 282.345 134.988 283.829 139.826 288.266C155.359 302.511 156.501 355.861 156.501 355.861L172.922 411.909Z" fill="#CE3D29"/>
<path fill-rule="evenodd" clip-rule="evenodd" d="M103.722 367.822V368.058C103.722 368.058 97.7888 368.07 89.5756 367.615L103.722 367.822Z" fill="#C83820"/>
<path opacity="0.201149" d="M136.389 368.176C138.289 344.075 151.438 338.979 141.963 311.95" stroke="black" stroke-width="3"/>
<path fill-rule="evenodd" clip-rule="evenodd" d="M158.759 397.992L109.35 392.303C107.732 392.116 106.667 390.527 107.11 388.962L126.632 320.061C126.985 318.816 128.19 318.01 129.477 318.158L178.886 323.847C180.503 324.033 181.569 325.623 181.125 327.188L161.603 396.088C161.251 397.334 160.045 398.14 158.759 397.992" fill="#18181C"/>
<path d="M114.884 372.243C114.978 372.269 115.073 372.295 115.17 372.322C118.602 373.257 122.111 373.824 126.991 373.181C130.13 372.771 132.828 372.235 132.798 371.735C132.712 370.471 131.188 370.187 131.188 370.187L128.257 370.329L125.437 370.162C125.437 370.162 138.392 367.714 138.392 367.335C138.352 366 136.226 365.459 136.226 365.459C136.226 365.459 140.68 364.751 140.629 364.042C140.508 362.242 138.519 362.106 138.519 362.106C138.519 362.106 139.071 361.63 139.015 361.19C138.797 359.415 135.628 359.122 134.119 358.904C134.119 358.904 128.986 358.834 127.457 358.454C123.436 357.451 121.043 356.555 119.541 355.807L129.574 320.4C129.927 319.155 131.132 318.349 132.418 318.497L181.827 324.186C183.444 324.372 184.51 325.961 184.066 327.527L164.545 396.427C164.192 397.673 162.987 398.478 161.7 398.33L112.292 392.642C110.674 392.455 109.608 390.866 110.051 389.301L114.884 372.243V372.243Z" fill="#FCBDA4"/>
<path fill-rule="evenodd" clip-rule="evenodd" d="M138.392 367.335C138.352 366 136.226 365.459 136.226 365.459C136.226 365.459 140.68 364.751 140.629 364.042C140.508 362.242 138.519 362.106 138.519 362.106C138.519 362.106 139.071 361.63 139.015 361.19C138.813 359.546 136.08 359.173 134.479 358.954C134.351 358.937 134.231 358.92 134.119 358.904C134.119 358.904 128.986 358.834 127.457 358.454C119.832 356.552 118.061 355.036 117.124 354.181C117.096 354.155 117.068 354.13 117.041 354.105C116.963 354.034 116.892 353.968 116.82 353.908C116.873 353.851 116.932 353.756 116.995 353.657C117.083 353.517 117.176 353.369 117.262 353.307L118.564 348.537C117.611 348.64 116.678 348.672 115.754 348.704C114.457 348.749 113.178 348.793 111.88 349.032C108.34 349.685 106.245 350.505 106.245 350.505L101.729 352.047L98.4536 364.154C99.6936 365.256 102.665 367.431 104.681 368.528C108.572 370.646 110.286 371.076 112.917 371.737C113.359 371.848 113.826 371.966 114.335 372.099C114.392 372.114 114.45 372.129 114.509 372.145C114.723 372.201 114.943 372.258 115.17 372.322C118.602 373.257 122.111 373.824 126.991 373.181C130.13 372.771 132.828 372.235 132.798 371.735C132.712 370.471 131.188 370.187 131.188 370.187L128.257 370.329L125.437 370.162C125.437 370.162 138.392 367.714 138.392 367.335ZM180.125 421.208C179.574 420.127 175.792 415.589 172.687 411.938L159.758 413.557C158.278 422.28 164.429 434.746 164.429 434.746C164.429 434.746 161.23 432.796 160.593 434.501C160.309 435.26 159.667 441.322 171.653 441.73C172.925 441.774 175.986 439.188 175.986 439.188C175.986 439.188 173.754 443.445 177.172 444.282C177.172 444.282 182.68 436.038 182.764 434.204C182.848 432.369 181.08 423.084 180.125 421.208Z" fill="#E576C6"/>
<path opacity="0.148065" d="M166.876 418.109C166.876 418.109 168.558 424.455 174.33 426.433C176.348 427.124 175.844 435.287 180.791 434.311" stroke="black" stroke-width="3"/>
<path fill-rule="evenodd" clip-rule="evenodd" d="M134.594 324.916C134.205 326.137 133.374 326.963 132.739 326.761C132.104 326.56 131.904 325.405 132.293 324.185C132.682 322.963 133.512 322.137 134.148 322.338C134.783 322.541 134.983 323.694 134.594 324.916" fill="#020101"/>
<path opacity="0.200498" d="M84.8253 316.729L72.3545 337.357L103.362 349.613" stroke="black" stroke-width="3"/>
<path fill-rule="evenodd" clip-rule="evenodd" d="M268.995 478.434L262.889 466.431L248.196 468.642L268.182 501.369L312.019 472.306C296.931 468.944 268.995 478.434 268.995 478.434ZM200.347 541.699L201.875 528.373L188.448 522.146L186.464 560.313L239.473 560.221C228.782 549.146 200.347 541.699 200.347 541.699Z" fill="#0D0B6D"/>
<path fill-rule="evenodd" clip-rule="evenodd" d="M264.436 468.133L249.544 471.24L258.119 484.981L270.466 477.463L264.436 468.133ZM201.89 531.091L187.806 525.499L187.373 541.626L201.77 542.154L201.89 531.091Z" fill="#E576C6"/>
<path d="M223.175 455.404L215.886 534.447H182.121L183.62 419.681L119.173 420.125C100.788 420.125 83.0052 404.352 84.2801 386.021L86.2846 367.358L184.705 338.313C202.925 334.197 209.242 339.634 221.054 360.639L273.209 467.434L244.558 486.561L223.175 455.404Z" fill="#2F2F3D"/>
<path opacity="0.150484" fill-rule="evenodd" clip-rule="evenodd" d="M192.927 374.154V374.154L119.173 420.125L183.62 419.681L182.121 534.447H215.886L227.461 408.933C230.317 386.096 216.009 374.154 192.927 374.154" fill="#18181C"/>
<path fill-rule="evenodd" clip-rule="evenodd" d="M98.0815 69.375C98.0815 88.5805 82.494 104.15 63.2656 104.15C44.0378 104.15 28.4507 88.5805 28.4507 69.375C28.4507 50.169 44.0378 34.6 63.2656 34.6C82.494 34.6 98.0815 50.169 98.0815 69.375" fill="#CCE3FF"/>
<path fill-rule="evenodd" clip-rule="evenodd" d="M91.2551 69.375C91.2551 88.5805 75.667 104.15 56.4392 104.15C37.2113 104.15 21.6243 88.5805 21.6243 69.375C21.6243 50.169 37.2113 34.6 56.4392 34.6C75.667 34.6 91.2551 50.169 91.2551 69.375" fill="#DCEEFF"/>
<path fill-rule="evenodd" clip-rule="evenodd" d="M82.8224 69.3724C82.8224 82.9466 72.5509 94.1207 59.353 95.5689C58.3951 95.6746 57.4264 95.7272 56.4424 95.7272C41.8683 95.7272 30.0564 83.9295 30.0564 69.3724C30.0564 54.8207 41.8683 43.0225 56.4424 43.0225C57.4264 43.0225 58.3951 43.0755 59.353 43.1812C72.5509 44.6294 82.8224 55.8035 82.8224 69.3724" fill="#CCE3FF"/>
<path fill-rule="evenodd" clip-rule="evenodd" d="M82.8224 69.3724C82.8224 82.9466 72.5509 94.1207 59.353 95.5689C46.1492 94.1207 35.8777 82.9466 35.8777 69.3724C35.8777 55.8035 46.1492 44.6294 59.353 43.1812C72.5509 44.6294 82.8224 55.8035 82.8224 69.3724" fill="#ECF6FF"/>
<path d="M57.5838 54.7204L66.1323 73.3431" stroke="#CCE3FF" stroke-width="8"/>
<path d="M66.9467 65.5359L48.2212 85.8663" stroke="#CCE3FF" stroke-width="8"/>
<path fill-rule="evenodd" clip-rule="evenodd" d="M159.509 184.606H199.331V125.774H159.509V184.606Z" fill="#DCEEFF"/>
<path fill-rule="evenodd" clip-rule="evenodd" d="M159.509 184.606H199.331V125.774H159.509V184.606Z" stroke="#DCEEFF" stroke-width="9"/>
<path fill-rule="evenodd" clip-rule="evenodd" d="M122.544 184.606H197.176V125.774H122.544V184.606Z" fill="white"/>
<path fill-rule="evenodd" clip-rule="evenodd" d="M122.544 184.606H197.176V125.774H122.544V184.606Z" stroke="#DCEEFF" stroke-width="9"/>
<path fill-rule="evenodd" clip-rule="evenodd" d="M129.414 178.206H190.306V132.175H129.414V178.206Z" fill="white"/>
<path fill-rule="evenodd" clip-rule="evenodd" d="M129.414 178.206H190.306V132.175H129.414V178.206Z" stroke="#DCEEFF" stroke-width="9"/>
<path fill-rule="evenodd" clip-rule="evenodd" d="M144.817 167.086H175.211V143.294H144.817V167.086Z" fill="#B6D4FF"/>
<rect x="157" y="131" width="271" height="65.3266" rx="20" fill="#0F9D58"/>
<path d="M204.402 166.547H197.254L195.648 171H193.328L199.844 153.938H201.812L208.34 171H206.031L204.402 166.547ZM197.934 164.695H203.734L200.828 156.715L197.934 164.695ZM212.465 159.855C213.426 158.676 214.676 158.086 216.215 158.086C218.895 158.086 220.246 159.598 220.27 162.621V171H218.102V162.609C218.094 161.695 217.883 161.02 217.469 160.582C217.062 160.145 216.426 159.926 215.559 159.926C214.855 159.926 214.238 160.113 213.707 160.488C213.176 160.863 212.762 161.355 212.465 161.965V171H210.297V153H212.465V159.855ZM223.445 174.398L222.215 173.555C222.949 172.531 223.332 171.477 223.363 170.391V168.434H225.484V170.133C225.484 170.922 225.289 171.711 224.898 172.5C224.516 173.289 224.031 173.922 223.445 174.398ZM242.008 171C241.883 170.75 241.781 170.305 241.703 169.664C240.695 170.711 239.492 171.234 238.094 171.234C236.844 171.234 235.816 170.883 235.012 170.18C234.215 169.469 233.816 168.57 233.816 167.484C233.816 166.164 234.316 165.141 235.316 164.414C236.324 163.68 237.738 163.312 239.559 163.312H241.668V162.316C241.668 161.559 241.441 160.957 240.988 160.512C240.535 160.059 239.867 159.832 238.984 159.832C238.211 159.832 237.562 160.027 237.039 160.418C236.516 160.809 236.254 161.281 236.254 161.836H234.074C234.074 161.203 234.297 160.594 234.742 160.008C235.195 159.414 235.805 158.945 236.57 158.602C237.344 158.258 238.191 158.086 239.113 158.086C240.574 158.086 241.719 158.453 242.547 159.188C243.375 159.914 243.805 160.918 243.836 162.199V168.035C243.836 169.199 243.984 170.125 244.281 170.812V171H242.008ZM238.41 169.348C239.09 169.348 239.734 169.172 240.344 168.82C240.953 168.469 241.395 168.012 241.668 167.449V164.848H239.969C237.312 164.848 235.984 165.625 235.984 167.18C235.984 167.859 236.211 168.391 236.664 168.773C237.117 169.156 237.699 169.348 238.41 169.348ZM249.59 171H247.422V153H249.59V171ZM255.426 171H253.258V153H255.426V171ZM272.242 167.637C272.242 167.051 272.02 166.598 271.574 166.277C271.137 165.949 270.367 165.668 269.266 165.434C268.172 165.199 267.301 164.918 266.652 164.59C266.012 164.262 265.535 163.871 265.223 163.418C264.918 162.965 264.766 162.426 264.766 161.801C264.766 160.762 265.203 159.883 266.078 159.164C266.961 158.445 268.086 158.086 269.453 158.086C270.891 158.086 272.055 158.457 272.945 159.199C273.844 159.941 274.293 160.891 274.293 162.047H272.113C272.113 161.453 271.859 160.941 271.352 160.512C270.852 160.082 270.219 159.867 269.453 159.867C268.664 159.867 268.047 160.039 267.602 160.383C267.156 160.727 266.934 161.176 266.934 161.73C266.934 162.254 267.141 162.648 267.555 162.914C267.969 163.18 268.715 163.434 269.793 163.676C270.879 163.918 271.758 164.207 272.43 164.543C273.102 164.879 273.598 165.285 273.918 165.762C274.246 166.23 274.41 166.805 274.41 167.484C274.41 168.617 273.957 169.527 273.051 170.215C272.145 170.895 270.969 171.234 269.523 171.234C268.508 171.234 267.609 171.055 266.828 170.695C266.047 170.336 265.434 169.836 264.988 169.195C264.551 168.547 264.332 167.848 264.332 167.098H266.5C266.539 167.824 266.828 168.402 267.367 168.832C267.914 169.254 268.633 169.465 269.523 169.465C270.344 169.465 271 169.301 271.492 168.973C271.992 168.637 272.242 168.191 272.242 167.637ZM282.496 171.234C280.777 171.234 279.379 170.672 278.301 169.547C277.223 168.414 276.684 166.902 276.684 165.012V164.613C276.684 163.355 276.922 162.234 277.398 161.25C277.883 160.258 278.555 159.484 279.414 158.93C280.281 158.367 281.219 158.086 282.227 158.086C283.875 158.086 285.156 158.629 286.07 159.715C286.984 160.801 287.441 162.355 287.441 164.379V165.281H278.852C278.883 166.531 279.246 167.543 279.941 168.316C280.645 169.082 281.535 169.465 282.613 169.465C283.379 169.465 284.027 169.309 284.559 168.996C285.09 168.684 285.555 168.27 285.953 167.754L287.277 168.785C286.215 170.418 284.621 171.234 282.496 171.234ZM282.227 159.867C281.352 159.867 280.617 160.188 280.023 160.828C279.43 161.461 279.062 162.352 278.922 163.5H285.273V163.336C285.211 162.234 284.914 161.383 284.383 160.781C283.852 160.172 283.133 159.867 282.227 159.867ZM292.902 155.25V158.32H295.27V159.996H292.902V167.859C292.902 168.367 293.008 168.75 293.219 169.008C293.43 169.258 293.789 169.383 294.297 169.383C294.547 169.383 294.891 169.336 295.328 169.242V171C294.758 171.156 294.203 171.234 293.664 171.234C292.695 171.234 291.965 170.941 291.473 170.355C290.98 169.77 290.734 168.938 290.734 167.859V159.996H288.426V158.32H290.734V155.25H292.902ZM300.754 155.25V158.32H303.121V159.996H300.754V167.859C300.754 168.367 300.859 168.75 301.07 169.008C301.281 169.258 301.641 169.383 302.148 169.383C302.398 169.383 302.742 169.336 303.18 169.242V171C302.609 171.156 302.055 171.234 301.516 171.234C300.547 171.234 299.816 170.941 299.324 170.355C298.832 169.77 298.586 168.938 298.586 167.859V159.996H296.277V158.32H298.586V155.25H300.754ZM308.02 171H305.852V153H308.02V171ZM316.762 171.234C315.043 171.234 313.645 170.672 312.566 169.547C311.488 168.414 310.949 166.902 310.949 165.012V164.613C310.949 163.355 311.188 162.234 311.664 161.25C312.148 160.258 312.82 159.484 313.68 158.93C314.547 158.367 315.484 158.086 316.492 158.086C318.141 158.086 319.422 158.629 320.336 159.715C321.25 160.801 321.707 162.355 321.707 164.379V165.281H313.117C313.148 166.531 313.512 167.543 314.207 168.316C314.91 169.082 315.801 169.465 316.879 169.465C317.645 169.465 318.293 169.309 318.824 168.996C319.355 168.684 319.82 168.27 320.219 167.754L321.543 168.785C320.48 170.418 318.887 171.234 316.762 171.234ZM316.492 159.867C315.617 159.867 314.883 160.188 314.289 160.828C313.695 161.461 313.328 162.352 313.188 163.5H319.539V163.336C319.477 162.234 319.18 161.383 318.648 160.781C318.117 160.172 317.398 159.867 316.492 159.867ZM323.699 164.555C323.699 162.609 324.16 161.047 325.082 159.867C326.004 158.68 327.211 158.086 328.703 158.086C330.188 158.086 331.363 158.594 332.23 159.609V153H334.398V171H332.406L332.301 169.641C331.434 170.703 330.227 171.234 328.68 171.234C327.211 171.234 326.012 170.633 325.082 169.43C324.16 168.227 323.699 166.656 323.699 164.719V164.555ZM325.867 164.801C325.867 166.238 326.164 167.363 326.758 168.176C327.352 168.988 328.172 169.395 329.219 169.395C330.594 169.395 331.598 168.777 332.23 167.543V161.719C331.582 160.523 330.586 159.926 329.242 159.926C328.18 159.926 327.352 160.336 326.758 161.156C326.164 161.977 325.867 163.191 325.867 164.801ZM351.555 169.746C350.711 170.738 349.473 171.234 347.84 171.234C346.488 171.234 345.457 170.844 344.746 170.062C344.043 169.273 343.688 168.109 343.68 166.57V158.32H345.848V166.512C345.848 168.434 346.629 169.395 348.191 169.395C349.848 169.395 350.949 168.777 351.496 167.543V158.32H353.664V171H351.602L351.555 169.746ZM367.68 164.801C367.68 166.73 367.238 168.285 366.355 169.465C365.473 170.645 364.277 171.234 362.77 171.234C361.23 171.234 360.02 170.746 359.137 169.77V175.875H356.969V158.32H358.949L359.055 159.727C359.938 158.633 361.164 158.086 362.734 158.086C364.258 158.086 365.461 158.66 366.344 159.809C367.234 160.957 367.68 162.555 367.68 164.602V164.801ZM365.512 164.555C365.512 163.125 365.207 161.996 364.598 161.168C363.988 160.34 363.152 159.926 362.09 159.926C360.777 159.926 359.793 160.508 359.137 161.672V167.73C359.785 168.887 360.777 169.465 362.113 169.465C363.152 169.465 363.977 169.055 364.586 168.234C365.203 167.406 365.512 166.18 365.512 164.555ZM372.871 166.184H370.914L370.762 153.938H373.035L372.871 166.184ZM370.68 169.91C370.68 169.559 370.785 169.266 370.996 169.031C371.215 168.789 371.535 168.668 371.957 168.668C372.379 168.668 372.699 168.789 372.918 169.031C373.137 169.266 373.246 169.559 373.246 169.91C373.246 170.262 373.137 170.555 372.918 170.789C372.699 171.016 372.379 171.129 371.957 171.129C371.535 171.129 371.215 171.016 370.996 170.789C370.785 170.555 370.68 170.262 370.68 169.91Z" fill="#F2F2F2"/>
<path d="M157 179.995H195.797L179.004 215.667L166.498 241.432C164.18 246.207 157 244.557 157 239.249V179.995Z" fill="#0F9D58"/>
</g>
<defs>
<clipPath id="clip0">
<rect width="443" height="620" fill="white"/>
</clipPath>
</defs>
</svg>
