<svg width="443" height="620" viewBox="0 0 443 620" fill="none" xmlns="http://www.w3.org/2000/svg">
<g clip-path="url(#clip0)">
<rect width="443" height="620" fill="white"/>
<path fill-rule="evenodd" clip-rule="evenodd" d="M446.247 72.8474H436.026C427.206 72.8474 420.056 65.6897 420.056 56.8598V29.9654C420.056 27.3065 422.209 25.1514 424.865 25.1514H457.408C460.064 25.1514 462.218 27.3065 462.218 29.9654V56.8598C462.218 65.6897 455.068 72.8474 446.247 72.8474" fill="#DCEEFF"/>
<path fill-rule="evenodd" clip-rule="evenodd" d="M430.206 48.9991H452.067V5.90192H430.206V48.9991Z" fill="#DCEEFF"/>
<path fill-rule="evenodd" clip-rule="evenodd" d="M325.005 45.2605V45.2605C325.005 49.2537 328.239 52.4905 332.228 52.4905H397.21V38.0305H332.228C328.239 38.0305 325.005 41.2672 325.005 45.2605" fill="#CCE3FF"/>
<path fill-rule="evenodd" clip-rule="evenodd" d="M368.711 45.2605V45.2605C368.711 47.5723 370.582 49.4463 372.892 49.4463H397.035C397.131 49.4463 397.209 49.3683 397.209 49.2722V41.2487C397.209 41.1527 397.131 41.0746 397.035 41.0746H372.892C370.582 41.0746 368.711 42.9486 368.711 45.2605" fill="#DCEEFF"/>
<path fill-rule="evenodd" clip-rule="evenodd" d="M315.935 52.4907V66.9513H386.863C390.852 66.9513 394.086 63.714 394.086 59.7207C394.086 55.728 390.852 52.4907 386.863 52.4907H315.935Z" fill="#CCE3FF"/>
<path fill-rule="evenodd" clip-rule="evenodd" d="M315.935 55.5756V63.8664H345.098C347.385 63.8664 349.239 62.0103 349.239 59.721C349.239 57.4311 347.385 55.5756 345.098 55.5756H315.935Z" fill="#DCEEFF"/>
<path fill-rule="evenodd" clip-rule="evenodd" d="M343.184 29.2141L347.797 -15.7906H362.223L366.836 29.2141C367.319 33.9304 363.623 38.0301 358.887 38.0301H351.133C346.398 38.0301 342.701 33.9304 343.184 29.2141" fill="#DCEEFF"/>
<path fill-rule="evenodd" clip-rule="evenodd" d="M224.772 454.908H438.754V73.4133H224.772V454.908Z" fill="#E6F4FF"/>
<path fill-rule="evenodd" clip-rule="evenodd" d="M224.773 482.256H237.093V73.4133H224.773V482.256Z" fill="#E6F4FF"/>
<path fill-rule="evenodd" clip-rule="evenodd" d="M237.093 482.256H249.413V454.908H237.093V482.256Z" fill="#B6D4FF"/>
<path fill-rule="evenodd" clip-rule="evenodd" d="M312.095 482.256H324.415V454.908H312.095V482.256Z" fill="#B6D4FF"/>
<path fill-rule="evenodd" clip-rule="evenodd" d="M438.755 482.256H451.075V454.908H438.755V482.256Z" fill="#B6D4FF"/>
<path fill-rule="evenodd" clip-rule="evenodd" d="M426.434 482.256H438.754V73.4133H426.434V482.256Z" fill="#E6F4FF"/>
<path fill-rule="evenodd" clip-rule="evenodd" d="M299.775 482.256H312.095V454.908H299.775V482.256Z" fill="#C5E0FC"/>
<path fill-rule="evenodd" clip-rule="evenodd" d="M237.093 437.976H323.598V364.768H237.093V437.976Z" fill="#CCE3FF"/>
<path fill-rule="evenodd" clip-rule="evenodd" d="M339.931 437.977H426.436V364.768H339.931V437.977Z" fill="#CCE3FF"/>
<path fill-rule="evenodd" clip-rule="evenodd" d="M237.093 348.417H323.598V275.215H237.093V348.417Z" fill="#CCE3FF"/>
<path fill-rule="evenodd" clip-rule="evenodd" d="M339.931 348.417H426.436V275.215H339.931V348.417Z" fill="#CCE3FF"/>
<path fill-rule="evenodd" clip-rule="evenodd" d="M237.093 258.862H426.434V185.658H237.093V258.862Z" fill="#CCE3FF"/>
<path fill-rule="evenodd" clip-rule="evenodd" d="M237.093 258.862H295.668V185.658H237.093V258.862Z" fill="#B6D4FF"/>
<path fill-rule="evenodd" clip-rule="evenodd" d="M237.093 169.306H426.434V96.1016H237.093V169.306Z" fill="#CCE3FF"/>
<path fill-rule="evenodd" clip-rule="evenodd" d="M237.093 169.306H295.668V96.1016H237.093V169.306Z" fill="#B6D4FF"/>
<path fill-rule="evenodd" clip-rule="evenodd" d="M438.754 454.908H513.755V73.4133H438.754V454.908Z" fill="#B6D4FF"/>
<path fill-rule="evenodd" clip-rule="evenodd" d="M436.299 78.8851H220.044C213.761 78.8851 208.667 73.7853 208.667 67.4952V66.8098H436.299V78.8851Z" fill="#E6F4FF"/>
<path fill-rule="evenodd" clip-rule="evenodd" d="M518.355 78.8851H436.299V66.8098H529.733V67.4952C529.733 73.7853 524.639 78.8851 518.355 78.8851" fill="#B6D4FF"/>
<path fill-rule="evenodd" clip-rule="evenodd" d="M224.772 84.1675H438.754V78.8849H224.772V84.1675Z" fill="#CCE3FF"/>
<path fill-rule="evenodd" clip-rule="evenodd" d="M279.516 169.306H291.143V124.842H279.516V169.306Z" fill="#DCEEFF"/>
<path fill-rule="evenodd" clip-rule="evenodd" d="M267.889 169.306H279.516V124.842H267.889V169.306Z" fill="#CCE3FF"/>
<path fill-rule="evenodd" clip-rule="evenodd" d="M291.143 169.306H302.77V124.842H291.143V169.306Z" fill="#CCE3FF"/>
<path fill-rule="evenodd" clip-rule="evenodd" d="M333.404 169.306H302.77V124.842H333.404C335.041 124.842 336.368 126.17 336.368 127.808V166.34C336.368 167.978 335.041 169.306 333.404 169.306" fill="#B6D4FF"/>
<path fill-rule="evenodd" clip-rule="evenodd" d="M307.749 135.723H331.389V131.32H307.749V135.723Z" fill="#CCE3FF"/>
<path fill-rule="evenodd" clip-rule="evenodd" d="M313.017 142.515H326.121V138.113H313.017V142.515Z" fill="#CCE3FF"/>
<path fill-rule="evenodd" clip-rule="evenodd" d="M405.351 233.344V234.292C405.351 238.64 401.829 242.166 397.486 242.166H329.334V225.47H397.486C401.829 225.47 405.351 228.995 405.351 233.344" fill="#B6D4FF"/>
<path fill-rule="evenodd" clip-rule="evenodd" d="M359.337 233.543V234.092C359.337 236.61 357.298 238.651 354.783 238.651H329.428C329.376 238.651 329.333 238.609 329.333 238.556V229.079C329.333 229.027 329.376 228.984 329.428 228.984H354.783C357.298 228.984 359.337 231.026 359.337 233.543" fill="#DCEEFF"/>
<path fill-rule="evenodd" clip-rule="evenodd" d="M414.9 242.166V258.862H340.489C336.144 258.862 332.623 255.337 332.623 250.988V250.04C332.623 245.692 336.144 242.166 340.489 242.166H414.9Z" fill="#B6D4FF"/>
<path fill-rule="evenodd" clip-rule="evenodd" d="M414.9 245.728V255.301H384.347C381.857 255.301 379.837 253.279 379.837 250.785V250.243C379.837 247.749 381.857 245.728 384.347 245.728H414.9Z" fill="#DCEEFF"/>
<path fill-rule="evenodd" clip-rule="evenodd" d="M301.515 370.553H259.176C255.984 370.553 253.397 367.963 253.397 364.768H307.293C307.293 367.963 304.706 370.553 301.515 370.553" fill="#B6D4FF"/>
<path fill-rule="evenodd" clip-rule="evenodd" d="M404.354 370.553H362.014C358.823 370.553 356.236 367.963 356.236 364.768H410.132C410.132 367.963 407.545 370.553 404.354 370.553" fill="#B6D4FF"/>
<path fill-rule="evenodd" clip-rule="evenodd" d="M404.354 280.999H362.014C358.823 280.999 356.236 278.409 356.236 275.215H410.132C410.132 278.409 407.545 280.999 404.354 280.999" fill="#B6D4FF"/>
<path fill-rule="evenodd" clip-rule="evenodd" d="M301.515 280.999H259.176C255.984 280.999 253.397 278.409 253.397 275.215H307.293C307.293 278.409 304.706 280.999 301.515 280.999" fill="#B6D4FF"/>
<path fill-rule="evenodd" clip-rule="evenodd" d="M157.02 492.255H371.778V441.245H157.02V492.255Z" fill="#B6D4FF"/>
<path fill-rule="evenodd" clip-rule="evenodd" d="M217.27 452.04H372.1C380.159 452.04 386.885 445.869 387.599 437.819L392.441 383.245C393.251 374.118 386.08 366.258 376.942 366.258H222.111C214.052 366.258 207.327 372.429 206.613 380.48L201.771 435.053C200.962 444.181 208.132 452.04 217.27 452.04" fill="#B6D4FF"/>
<path fill-rule="evenodd" clip-rule="evenodd" d="M89.8319 517.038H150.092C159.006 517.038 166.008 509.384 165.242 500.478L160.254 442.456C159.576 434.571 152.996 428.516 145.104 428.516H84.8436C75.9299 428.516 68.9274 436.17 69.6931 445.075L74.6817 503.098C75.3598 510.983 81.9399 517.038 89.8319 517.038" fill="#B6D4FF"/>
<path fill-rule="evenodd" clip-rule="evenodd" d="M170.686 452.04H342.694C350.753 452.04 357.478 445.869 358.193 437.819L363.034 383.245C363.844 374.118 356.674 366.258 347.536 366.258H175.528C167.469 366.258 160.743 372.429 160.029 380.48L155.187 435.053C154.378 444.181 161.548 452.04 170.686 452.04" fill="#DCEEFF"/>
<path fill-rule="evenodd" clip-rule="evenodd" d="M96.1942 517.038H358.847V490.325H96.1942V517.038Z" fill="#CCE3FF"/>
<path fill-rule="evenodd" clip-rule="evenodd" d="M132.053 490.325H316.848C326.026 490.325 333.466 482.864 333.466 473.66C333.466 464.457 326.026 456.996 316.848 456.996H132.053C122.876 456.996 115.436 464.457 115.436 473.66C115.436 482.864 122.876 490.325 132.053 490.325" fill="#DCEEFF"/>
<path fill-rule="evenodd" clip-rule="evenodd" d="M408.761 538.681H415.064L412.4 517.038H400.77L408.761 538.681Z" fill="#B6D4FF"/>
<path fill-rule="evenodd" clip-rule="evenodd" d="M354.59 538.681H360.893L358.229 517.038H346.599L354.59 538.681Z" fill="#B6D4FF"/>
<path fill-rule="evenodd" clip-rule="evenodd" d="M97.1893 538.681H90.8867L93.5504 517.038H105.18L97.1893 538.681Z" fill="#B6D4FF"/>
<path fill-rule="evenodd" clip-rule="evenodd" d="M151.361 538.681H145.057L147.721 517.038H159.352L151.361 538.681Z" fill="#B6D4FF"/>
<path fill-rule="evenodd" clip-rule="evenodd" d="M89.8319 517.038H98.8614C107.775 517.038 114.778 509.384 114.012 500.478L109.024 442.456C108.346 434.571 101.765 428.516 93.8731 428.516H84.8436C75.9299 428.516 68.9274 436.17 69.6931 445.075L74.6817 503.098C75.3598 510.983 81.9399 517.038 89.8319 517.038" fill="#CCE3FF"/>
<path fill-rule="evenodd" clip-rule="evenodd" d="M350.04 517.038H417.91C425.802 517.038 432.383 510.983 433.061 503.098L438.049 445.075C438.815 436.17 431.813 428.516 422.899 428.516H355.028C347.136 428.516 340.556 434.571 339.878 442.456L334.89 500.478C334.124 509.384 341.126 517.038 350.04 517.038" fill="#B6D4FF"/>
<path fill-rule="evenodd" clip-rule="evenodd" d="M350.04 517.038H359.069C366.962 517.038 373.542 510.983 374.22 503.098L379.208 445.075C379.974 436.17 372.972 428.516 364.058 428.516H355.028C347.136 428.516 340.556 434.571 339.878 442.456L334.89 500.478C334.124 509.384 341.126 517.038 350.04 517.038" fill="#CCE3FF"/>
<path fill-rule="evenodd" clip-rule="evenodd" d="M8.04004 112.022H118.066V107.4H8.04004V112.022Z" fill="#DCEEFF"/>
<path fill-rule="evenodd" clip-rule="evenodd" d="M118.066 112.022H136.167V107.4H118.066V112.022Z" fill="#CCE3FF"/>
<path fill-rule="evenodd" clip-rule="evenodd" d="M34.8567 112.022L43.4486 125.502V112.022H34.8567Z" fill="#B6D4FF"/>
<path fill-rule="evenodd" clip-rule="evenodd" d="M30.1018 112.022L38.6938 125.502H43.4486L34.8567 112.022H30.1018Z" fill="#CCE3FF"/>
<path fill-rule="evenodd" clip-rule="evenodd" d="M97.8745 112.022L106.467 125.502V112.022H97.8745Z" fill="#B6D4FF"/>
<path fill-rule="evenodd" clip-rule="evenodd" d="M93.1196 112.022L101.712 125.502H106.467L97.8745 112.022H93.1196Z" fill="#CCE3FF"/>
<path fill-rule="evenodd" clip-rule="evenodd" d="M47.7314 35.6211C47.7314 41.3405 44.2317 45.9768 39.9145 45.9768C35.5973 45.9768 32.0975 41.3405 32.0975 35.6211C32.0975 29.9018 35.5973 25.2655 39.9145 25.2655C44.2317 25.2655 47.7314 29.9018 47.7314 35.6211" fill="#CCE3FF"/>
<path d="M39.9729 90.0127V36.1476" stroke="#DCEEFF" stroke-width="9"/>
<path fill-rule="evenodd" clip-rule="evenodd" d="M31.5544 50.8334C35.2457 54.5011 35.9938 59.7041 33.2253 62.455C30.4568 65.2056 25.22 64.4624 21.5286 60.7948C17.8373 57.127 17.0893 51.9239 19.8576 49.1731C22.6263 46.4224 27.8629 47.1658 31.5544 50.8334" fill="#CCE3FF"/>
<path fill-rule="evenodd" clip-rule="evenodd" d="M57.9114 58.3688C60.8881 61.3264 60.0838 66.9207 56.1149 70.8642C52.1461 74.8074 46.5157 75.6066 43.5391 72.649" fill="#CCE3FF"/>
<path d="M53.9013 63.5786L40.2041 77.2268" stroke="#DCEEFF" stroke-width="9"/>
<path d="M49.9434 50.5269L39.9336 60.3555" stroke="#DCEEFF" stroke-width="9"/>
<path d="M29.5402 72.1013L39.9973 82.6083" stroke="#DCEEFF" stroke-width="9"/>
<path d="M25.9357 55.2826L39.9144 69.3371" stroke="#DCEEFF" stroke-width="9"/>
<path fill-rule="evenodd" clip-rule="evenodd" d="M44.1646 108.512H35.7813C29.3422 108.512 24.074 103.277 24.074 96.8795V85.9338H55.8719V96.8795C55.8719 103.277 50.6037 108.512 44.1646 108.512" fill="#ECF6FF"/>
<path d="M55.8718 92.0176H24.0739" stroke="#DCEEFF" stroke-width="9"/>
<path d="M55.8718 98.1198H24.0739" stroke="#DCEEFF" stroke-width="9"/>
<path fill-rule="evenodd" clip-rule="evenodd" d="M128.711 40.5701C128.711 40.5701 115.648 69.4055 114.088 100.757C114.088 100.757 121.399 68.9862 128.711 40.5701" fill="#DCEEFF"/>
<path fill-rule="evenodd" clip-rule="evenodd" d="M105.338 62.7297C105.338 62.7297 114.741 62.9744 116.172 94.3263C116.172 94.3263 112.16 70.6638 105.338 62.7297" fill="#DCEEFF"/>
<path fill-rule="evenodd" clip-rule="evenodd" d="M114.939 31.1731C114.939 31.1731 120.428 64.3438 115.026 98.0969C115.026 98.0969 115.347 62.844 114.939 31.1731" fill="#DCEEFF"/>
<path fill-rule="evenodd" clip-rule="evenodd" d="M122.343 106.973H108.769C108.667 106.973 108.565 106.971 108.464 106.968C102.274 106.736 98.8306 98.906 102.336 93.2569L105.446 88.246H125.666L128.776 93.2569C132.281 98.906 128.838 106.736 122.648 106.968C122.547 106.971 122.445 106.973 122.343 106.973" fill="#ECF6FF"/>
<path d="M100.933 99.7708H130.178" stroke="#B6D4FF" stroke-width="9"/>
<path d="M101.612 94.9279H129.594" stroke="#B6D4FF" stroke-width="9"/>
<rect x="86" y="136" width="271" height="65.3266" rx="20" fill="#0F9D58"/>
<path d="M102.395 181H100.145V163.938H102.395V181ZM109.121 165.25V168.32H111.488V169.996H109.121V177.859C109.121 178.367 109.227 178.75 109.438 179.008C109.648 179.258 110.008 179.383 110.516 179.383C110.766 179.383 111.109 179.336 111.547 179.242V181C110.977 181.156 110.422 181.234 109.883 181.234C108.914 181.234 108.184 180.941 107.691 180.355C107.199 179.77 106.953 178.938 106.953 177.859V169.996H104.645V168.32H106.953V165.25H109.121ZM114.184 168.742L112.953 167.898C113.68 166.883 114.055 165.812 114.078 164.688V163H116.223V164.523C116.215 165.305 116.02 166.086 115.637 166.867C115.262 167.641 114.777 168.266 114.184 168.742ZM124.906 177.637C124.906 177.051 124.684 176.598 124.238 176.277C123.801 175.949 123.031 175.668 121.93 175.434C120.836 175.199 119.965 174.918 119.316 174.59C118.676 174.262 118.199 173.871 117.887 173.418C117.582 172.965 117.43 172.426 117.43 171.801C117.43 170.762 117.867 169.883 118.742 169.164C119.625 168.445 120.75 168.086 122.117 168.086C123.555 168.086 124.719 168.457 125.609 169.199C126.508 169.941 126.957 170.891 126.957 172.047H124.777C124.777 171.453 124.523 170.941 124.016 170.512C123.516 170.082 122.883 169.867 122.117 169.867C121.328 169.867 120.711 170.039 120.266 170.383C119.82 170.727 119.598 171.176 119.598 171.73C119.598 172.254 119.805 172.648 120.219 172.914C120.633 173.18 121.379 173.434 122.457 173.676C123.543 173.918 124.422 174.207 125.094 174.543C125.766 174.879 126.262 175.285 126.582 175.762C126.91 176.23 127.074 176.805 127.074 177.484C127.074 178.617 126.621 179.527 125.715 180.215C124.809 180.895 123.633 181.234 122.188 181.234C121.172 181.234 120.273 181.055 119.492 180.695C118.711 180.336 118.098 179.836 117.652 179.195C117.215 178.547 116.996 177.848 116.996 177.098H119.164C119.203 177.824 119.492 178.402 120.031 178.832C120.578 179.254 121.297 179.465 122.188 179.465C123.008 179.465 123.664 179.301 124.156 178.973C124.656 178.637 124.906 178.191 124.906 177.637ZM143.68 181C143.555 180.75 143.453 180.305 143.375 179.664C142.367 180.711 141.164 181.234 139.766 181.234C138.516 181.234 137.488 180.883 136.684 180.18C135.887 179.469 135.488 178.57 135.488 177.484C135.488 176.164 135.988 175.141 136.988 174.414C137.996 173.68 139.41 173.312 141.23 173.312H143.34V172.316C143.34 171.559 143.113 170.957 142.66 170.512C142.207 170.059 141.539 169.832 140.656 169.832C139.883 169.832 139.234 170.027 138.711 170.418C138.188 170.809 137.926 171.281 137.926 171.836H135.746C135.746 171.203 135.969 170.594 136.414 170.008C136.867 169.414 137.477 168.945 138.242 168.602C139.016 168.258 139.863 168.086 140.785 168.086C142.246 168.086 143.391 168.453 144.219 169.188C145.047 169.914 145.477 170.918 145.508 172.199V178.035C145.508 179.199 145.656 180.125 145.953 180.812V181H143.68ZM140.082 179.348C140.762 179.348 141.406 179.172 142.016 178.82C142.625 178.469 143.066 178.012 143.34 177.449V174.848H141.641C138.984 174.848 137.656 175.625 137.656 177.18C137.656 177.859 137.883 178.391 138.336 178.773C138.789 179.156 139.371 179.348 140.082 179.348ZM157.215 181H155.047V163H157.215V181ZM163.051 181H160.883V168.32H163.051V181ZM160.707 164.957C160.707 164.605 160.812 164.309 161.023 164.066C161.242 163.824 161.562 163.703 161.984 163.703C162.406 163.703 162.727 163.824 162.945 164.066C163.164 164.309 163.273 164.605 163.273 164.957C163.273 165.309 163.164 165.602 162.945 165.836C162.727 166.07 162.406 166.188 161.984 166.188C161.562 166.188 161.242 166.07 161.023 165.836C160.812 165.602 160.707 165.309 160.707 164.957ZM169.473 165.25V168.32H171.84V169.996H169.473V177.859C169.473 178.367 169.578 178.75 169.789 179.008C170 179.258 170.359 179.383 170.867 179.383C171.117 179.383 171.461 179.336 171.898 179.242V181C171.328 181.156 170.773 181.234 170.234 181.234C169.266 181.234 168.535 180.941 168.043 180.355C167.551 179.77 167.305 178.938 167.305 177.859V169.996H164.996V168.32H167.305V165.25H169.473ZM177.324 165.25V168.32H179.691V169.996H177.324V177.859C177.324 178.367 177.43 178.75 177.641 179.008C177.852 179.258 178.211 179.383 178.719 179.383C178.969 179.383 179.312 179.336 179.75 179.242V181C179.18 181.156 178.625 181.234 178.086 181.234C177.117 181.234 176.387 180.941 175.895 180.355C175.402 179.77 175.156 178.938 175.156 177.859V169.996H172.848V168.32H175.156V165.25H177.324ZM184.59 181H182.422V163H184.59V181ZM193.332 181.234C191.613 181.234 190.215 180.672 189.137 179.547C188.059 178.414 187.52 176.902 187.52 175.012V174.613C187.52 173.355 187.758 172.234 188.234 171.25C188.719 170.258 189.391 169.484 190.25 168.93C191.117 168.367 192.055 168.086 193.062 168.086C194.711 168.086 195.992 168.629 196.906 169.715C197.82 170.801 198.277 172.355 198.277 174.379V175.281H189.688C189.719 176.531 190.082 177.543 190.777 178.316C191.48 179.082 192.371 179.465 193.449 179.465C194.215 179.465 194.863 179.309 195.395 178.996C195.926 178.684 196.391 178.27 196.789 177.754L198.113 178.785C197.051 180.418 195.457 181.234 193.332 181.234ZM193.062 169.867C192.188 169.867 191.453 170.188 190.859 170.828C190.266 171.461 189.898 172.352 189.758 173.5H196.109V173.336C196.047 172.234 195.75 171.383 195.219 170.781C194.688 170.172 193.969 169.867 193.062 169.867ZM212.012 181.234C210.293 181.234 208.895 180.672 207.816 179.547C206.738 178.414 206.199 176.902 206.199 175.012V174.613C206.199 173.355 206.438 172.234 206.914 171.25C207.398 170.258 208.07 169.484 208.93 168.93C209.797 168.367 210.734 168.086 211.742 168.086C213.391 168.086 214.672 168.629 215.586 169.715C216.5 170.801 216.957 172.355 216.957 174.379V175.281H208.367C208.398 176.531 208.762 177.543 209.457 178.316C210.16 179.082 211.051 179.465 212.129 179.465C212.895 179.465 213.543 179.309 214.074 178.996C214.605 178.684 215.07 178.27 215.469 177.754L216.793 178.785C215.73 180.418 214.137 181.234 212.012 181.234ZM211.742 169.867C210.867 169.867 210.133 170.188 209.539 170.828C208.945 171.461 208.578 172.352 208.438 173.5H214.789V173.336C214.727 172.234 214.43 171.383 213.898 170.781C213.367 170.172 212.648 169.867 211.742 169.867ZM221.516 168.32L221.574 169.727C222.504 168.633 223.758 168.086 225.336 168.086C227.109 168.086 228.316 168.766 228.957 170.125C229.379 169.516 229.926 169.023 230.598 168.648C231.277 168.273 232.078 168.086 233 168.086C235.781 168.086 237.195 169.559 237.242 172.504V181H235.074V172.633C235.074 171.727 234.867 171.051 234.453 170.605C234.039 170.152 233.344 169.926 232.367 169.926C231.562 169.926 230.895 170.168 230.363 170.652C229.832 171.129 229.523 171.773 229.438 172.586V181H227.258V172.691C227.258 170.848 226.355 169.926 224.551 169.926C223.129 169.926 222.156 170.531 221.633 171.742V181H219.465V168.32H221.516ZM251.234 174.801C251.234 176.73 250.793 178.285 249.91 179.465C249.027 180.645 247.832 181.234 246.324 181.234C244.785 181.234 243.574 180.746 242.691 179.77V185.875H240.523V168.32H242.504L242.609 169.727C243.492 168.633 244.719 168.086 246.289 168.086C247.812 168.086 249.016 168.66 249.898 169.809C250.789 170.957 251.234 172.555 251.234 174.602V174.801ZM249.066 174.555C249.066 173.125 248.762 171.996 248.152 171.168C247.543 170.34 246.707 169.926 245.645 169.926C244.332 169.926 243.348 170.508 242.691 171.672V177.73C243.34 178.887 244.332 179.465 245.668 179.465C246.707 179.465 247.531 179.055 248.141 178.234C248.758 177.406 249.066 176.18 249.066 174.555ZM256.941 165.25V168.32H259.309V169.996H256.941V177.859C256.941 178.367 257.047 178.75 257.258 179.008C257.469 179.258 257.828 179.383 258.336 179.383C258.586 179.383 258.93 179.336 259.367 179.242V181C258.797 181.156 258.242 181.234 257.703 181.234C256.734 181.234 256.004 180.941 255.512 180.355C255.02 179.77 254.773 178.938 254.773 177.859V169.996H252.465V168.32H254.773V165.25H256.941ZM266 177.824L268.953 168.32H271.273L266.176 182.957C265.387 185.066 264.133 186.121 262.414 186.121L262.004 186.086L261.195 185.934V184.176L261.781 184.223C262.516 184.223 263.086 184.074 263.492 183.777C263.906 183.48 264.246 182.938 264.512 182.148L264.992 180.859L260.469 168.32H262.836L266 177.824ZM281.34 169.855C282.301 168.676 283.551 168.086 285.09 168.086C287.77 168.086 289.121 169.598 289.145 172.621V181H286.977V172.609C286.969 171.695 286.758 171.02 286.344 170.582C285.938 170.145 285.301 169.926 284.434 169.926C283.73 169.926 283.113 170.113 282.582 170.488C282.051 170.863 281.637 171.355 281.34 171.965V181H279.172V163H281.34V169.855ZM297.652 181.234C295.934 181.234 294.535 180.672 293.457 179.547C292.379 178.414 291.84 176.902 291.84 175.012V174.613C291.84 173.355 292.078 172.234 292.555 171.25C293.039 170.258 293.711 169.484 294.57 168.93C295.438 168.367 296.375 168.086 297.383 168.086C299.031 168.086 300.312 168.629 301.227 169.715C302.141 170.801 302.598 172.355 302.598 174.379V175.281H294.008C294.039 176.531 294.402 177.543 295.098 178.316C295.801 179.082 296.691 179.465 297.77 179.465C298.535 179.465 299.184 179.309 299.715 178.996C300.246 178.684 300.711 178.27 301.109 177.754L302.434 178.785C301.371 180.418 299.777 181.234 297.652 181.234ZM297.383 169.867C296.508 169.867 295.773 170.188 295.18 170.828C294.586 171.461 294.219 172.352 294.078 173.5H300.43V173.336C300.367 172.234 300.07 171.383 299.539 170.781C299.008 170.172 298.289 169.867 297.383 169.867ZM311.246 170.266C310.918 170.211 310.562 170.184 310.18 170.184C308.758 170.184 307.793 170.789 307.285 172V181H305.117V168.32H307.227L307.262 169.785C307.973 168.652 308.98 168.086 310.285 168.086C310.707 168.086 311.027 168.141 311.246 168.25V170.266ZM318.277 181.234C316.559 181.234 315.16 180.672 314.082 179.547C313.004 178.414 312.465 176.902 312.465 175.012V174.613C312.465 173.355 312.703 172.234 313.18 171.25C313.664 170.258 314.336 169.484 315.195 168.93C316.062 168.367 317 168.086 318.008 168.086C319.656 168.086 320.938 168.629 321.852 169.715C322.766 170.801 323.223 172.355 323.223 174.379V175.281H314.633C314.664 176.531 315.027 177.543 315.723 178.316C316.426 179.082 317.316 179.465 318.395 179.465C319.16 179.465 319.809 179.309 320.34 178.996C320.871 178.684 321.336 178.27 321.734 177.754L323.059 178.785C321.996 180.418 320.402 181.234 318.277 181.234ZM318.008 169.867C317.133 169.867 316.398 170.188 315.805 170.828C315.211 171.461 314.844 172.352 314.703 173.5H321.055V173.336C320.992 172.234 320.695 171.383 320.164 170.781C319.633 170.172 318.914 169.867 318.008 169.867ZM325.789 179.863C325.789 179.488 325.898 179.176 326.117 178.926C326.344 178.676 326.68 178.551 327.125 178.551C327.57 178.551 327.906 178.676 328.133 178.926C328.367 179.176 328.484 179.488 328.484 179.863C328.484 180.223 328.367 180.523 328.133 180.766C327.906 181.008 327.57 181.129 327.125 181.129C326.68 181.129 326.344 181.008 326.117 180.766C325.898 180.523 325.789 180.223 325.789 179.863ZM332.117 179.863C332.117 179.488 332.227 179.176 332.445 178.926C332.672 178.676 333.008 178.551 333.453 178.551C333.898 178.551 334.234 178.676 334.461 178.926C334.695 179.176 334.812 179.488 334.812 179.863C334.812 180.223 334.695 180.523 334.461 180.766C334.234 181.008 333.898 181.129 333.453 181.129C333.008 181.129 332.672 181.008 332.445 180.766C332.227 180.523 332.117 180.223 332.117 179.863ZM338.445 179.863C338.445 179.488 338.555 179.176 338.773 178.926C339 178.676 339.336 178.551 339.781 178.551C340.227 178.551 340.562 178.676 340.789 178.926C341.023 179.176 341.141 179.488 341.141 179.863C341.141 180.223 341.023 180.523 340.789 180.766C340.562 181.008 340.227 181.129 339.781 181.129C339.336 181.129 339 181.008 338.773 180.766C338.555 180.523 338.445 180.223 338.445 179.863Z" fill="#F2F2F2"/>
</g>
<defs>
<clipPath id="clip0">
<rect width="443" height="620" fill="white"/>
</clipPath>
</defs>
</svg>
