<svg width="443" height="378" viewBox="0 0 443 378" fill="none" xmlns="http://www.w3.org/2000/svg">
<g clip-path="url(#clip0)">
<rect width="443" height="378" fill="#252535" fill-opacity="0.82"/>
<path fill-rule="evenodd" clip-rule="evenodd" d="M68.9314 269.489L43.4496 371.826H49.402L74.8843 269.489H68.9314Z" fill="#CCE3FF"/>
<path d="M99.0052 320.177L113.102 270.528" stroke="#B6D4FF" stroke-width="7"/>
<path d="M87.9749 270.528L124.705 320.039" stroke="#B6D4FF" stroke-width="7"/>
<path fill-rule="evenodd" clip-rule="evenodd" d="M87.9749 270.528L35.3008 319.485Z" fill="white"/>
<path d="M87.9749 270.528L35.3008 319.485" stroke="#B6D4FF" stroke-width="7"/>
<path fill-rule="evenodd" clip-rule="evenodd" d="M109.996 269.427L135.111 371.825H140.978L115.864 269.427H109.996Z" fill="#CCE3FF"/>
<path d="M46.8257 270.528L99.005 319.485" stroke="#B6D4FF" stroke-width="7"/>
<path fill-rule="evenodd" clip-rule="evenodd" d="M43.7942 269.489L18.3129 371.826H24.2658L49.7481 269.489H43.7942Z" fill="#DCEEFF"/>
<path fill-rule="evenodd" clip-rule="evenodd" d="M84.9004 269.489L110.382 371.826H116.336L90.8538 269.489H84.9004Z" fill="#DCEEFF"/>
<path fill-rule="evenodd" clip-rule="evenodd" d="M144.757 258.084V258.867C144.757 265.406 139.445 270.702 132.899 270.702H40.0129C25.6852 270.702 14.6592 257.574 16.6364 242.864L27.1232 160.904C28.0309 154.116 33.6272 149.065 40.2399 149.065H67.7694C74.3775 149.065 79.9732 154.116 80.8862 160.904L91.3729 242.864C91.4533 243.45 91.5101 244.035 91.5432 244.616L91.6 244.606C91.6 244.606 93.5393 258.084 111.571 258.084H144.757Z" fill="#DCEEFF"/>
<path fill-rule="evenodd" clip-rule="evenodd" d="M122.806 131.952C123.252 142.696 128.944 149.135 129.475 159.162C130.159 172.059 122.754 170.696 123.315 181.279C123.606 186.764 74.6802 200.005 60.8917 182.758C52.0438 171.691 60.8198 170.311 60.024 155.296C59.2359 140.433 69.9504 138.202 69.535 130.366C68.9823 119.938 77.3703 106.044 91.064 105.317C107.743 104.433 122.131 115.713 122.806 131.952Z" fill="#19141E"/>
<path fill-rule="evenodd" clip-rule="evenodd" d="M97.8723 157.179C97.8723 157.179 92.9683 157.584 90.8137 156.553L97.7829 160.424L97.8723 157.179Z" fill="#CF3E83"/>
<path d="M86.6383 148.018C88.3121 150.397 87.8522 153.673 87.0735 155.615C86.811 156.281 85.17 161.842 84.9015 162.104C83.8577 163.121 97.567 168.244 97.567 168.244L97.8725 157.179C101.769 157.197 106.317 156.751 108.733 154.955C115.928 149.606 115.457 132.403 115.289 131.551L108.663 124.893C108.663 124.893 98.9984 121.043 97.661 122.967C95.2147 126.492 89.874 141.967 85.3332 140.473C85.3332 140.473 85.6444 135.734 81.7081 135.948C78.7752 136.108 78.1058 138.5 78.1799 139.857C78.4299 144.438 84.3906 144.813 86.6383 148.018" fill="#72A065"/>
<path fill-rule="evenodd" clip-rule="evenodd" d="M107.667 139.948L110.839 146.605L107.575 146.712L107.667 139.948Z" fill="#125475"/>
<path fill-rule="evenodd" clip-rule="evenodd" d="M104.69 140.401C104.692 141.765 103.948 142.866 103.027 142.862C102.107 142.858 101.359 141.749 101.357 140.386C101.354 139.023 102.099 137.921 103.019 137.925C103.94 137.929 104.688 139.038 104.69 140.401" fill="#0D0B6D"/>
<path fill-rule="evenodd" clip-rule="evenodd" d="M113.296 139.728C113.299 141.091 112.554 142.193 111.634 142.189C110.713 142.184 109.965 141.075 109.963 139.712C109.961 138.349 110.705 137.247 111.626 137.251C112.546 137.256 113.294 138.365 113.296 139.728" fill="#0D0B6D"/>
<path fill-rule="evenodd" clip-rule="evenodd" d="M109.858 113.647C110.182 113.285 110.526 112.939 110.887 112.612C111.699 113.308 112.469 114.05 113.188 114.84C117.055 119.079 119.527 124.589 119.861 130.711C119.87 130.866 119.878 131.017 119.883 131.172H119.887L120.157 136.132C119.965 136.135 119.776 136.13 119.583 136.123C115.817 135.954 112.411 134.297 110.009 131.71C109.118 130.749 108.363 129.658 107.777 128.469C107.685 128.293 107.603 128.108 107.521 127.932C107.113 126.991 106.809 125.994 106.624 124.956C93.7513 143.113 85.3333 140.474 85.3333 140.474L86.5536 130.977L77.1727 120.9C77.1727 120.9 103.925 109.356 109.858 113.647V113.647Z" fill="#19141E"/>
<path fill-rule="evenodd" clip-rule="evenodd" d="M109.858 113.647C110.182 113.285 110.526 112.939 110.887 112.612C111.699 113.308 112.469 114.05 113.188 114.84C117.055 119.079 119.527 124.589 119.861 130.711C119.87 130.866 119.878 131.017 119.883 131.172H119.887L120.157 136.132C119.965 136.135 119.776 136.13 119.583 136.123C115.817 135.954 112.411 134.297 110.009 131.71C109.118 130.749 108.363 129.658 107.777 128.469C107.685 128.293 107.603 128.108 107.521 127.932C107.113 126.991 106.809 125.994 106.624 124.956C93.7513 143.113 85.3333 140.474 85.3333 140.474L86.5536 130.977L77.1727 120.9C77.1727 120.9 103.925 109.356 109.858 113.647V113.647Z" fill="#19141E"/>
<path d="M106.948 150.014C106.948 150.014 104.86 150.812 102.605 148.56" stroke="#1C295E" stroke-width="3"/>
<path opacity="0.396996" fill-rule="evenodd" clip-rule="evenodd" d="M97.8643 157.179C97.8643 157.179 92.9603 157.584 90.8058 156.553L97.775 160.425L97.8643 157.179Z" fill="black"/>
<path fill-rule="evenodd" clip-rule="evenodd" d="M129.611 246.724C129.611 246.724 125.312 247.264 124.493 249.185C122.153 254.683 127.003 264.51 127.003 264.51C127.003 264.51 124.948 263.258 124.539 264.353C124.357 264.84 123.944 268.734 131.644 268.995C132.461 269.024 134.427 267.363 134.427 267.363C134.427 267.363 132.994 270.097 135.189 270.634C135.189 270.634 138.727 265.34 138.781 264.162C138.835 262.984 137.7 257.02 137.086 255.816C136.472 254.611 129.611 246.724 129.611 246.724ZM56.8082 256.373L55.2851 246.916C53.2069 247.875 51.4125 247.796 49.9186 247.73C48.3841 247.662 47.1667 247.609 46.2843 248.708C44.5242 250.901 42.499 255.404 41.4446 258.073C41.009 259.174 40.7542 263.205 41.0828 265.484C41.2692 266.774 41.9106 268.038 41.9106 268.038C41.9106 268.038 42.5504 270.453 42.8996 270.706C43.8859 271.421 44.5159 270.394 44.5159 270.394C44.5159 270.394 44.7605 273.783 45.5399 273.567C46.0207 273.434 46.7739 272.916 46.9085 272.101C47.7667 266.912 49.5743 261.622 51.5014 260.942C52.7388 260.506 52.8585 262.612 52.9707 264.584C53.0332 265.683 53.0933 266.741 53.3432 267.293C54.0207 268.789 57.3271 270.263 56.8033 267.744C56.0861 264.292 56.256 262.909 56.5092 260.849C56.5212 260.751 56.5334 260.651 56.5458 260.55C56.8177 258.317 56.8082 256.373 56.8082 256.373Z" fill="#72A065"/>
<path opacity="0.152414" d="M128.575 253.826C128.575 253.826 129.655 257.901 133.363 259.171C134.66 259.616 134.336 264.858 137.514 264.231" stroke="black" stroke-width="3"/>
<path d="M83.0844 165.213L84.1747 157.314L100.794 159.603L99.8877 166.167C104.766 166.637 108.087 167.588 111.195 170.438C121.177 179.589 121.911 213.848 121.911 213.848L132.459 249.843L123.779 250.93C123.779 250.93 109.248 231.699 106.037 221.359H76.2714C76.2714 221.359 76.5529 218.285 75.8529 213.844C74.9324 208.036 71.6268 203.705 71.6268 203.705L65.647 211.052L55.2851 247.704L45.7639 249.41C45.7639 249.41 42.9072 219.448 48.6853 203.086C53.7369 188.775 62.9538 173.234 70.1509 168.705C74.7197 165.829 79.0114 165.198 83.0844 165.213V165.213Z" fill="#CE3D29"/>
<path opacity="0.195894" d="M108.991 221.758C110.211 206.28 118.658 203.007 112.571 185.649" stroke="black" stroke-width="3"/>
<path opacity="0.195894" d="M79.0383 192.487L71.6256 203.703" stroke="black" stroke-width="3"/>
<path fill-rule="evenodd" clip-rule="evenodd" d="M124.258 336.635L117.215 337.789C117.215 337.789 112.699 344.183 112.567 345.228C112.434 346.274 114.186 356.192 115.299 356.972C115.547 357.146 115.856 358.313 116.306 360.014C117.772 365.55 120.736 376.738 127.941 377.702C133.466 378.44 132.785 374.089 131.895 368.392C131.711 367.215 131.518 365.981 131.369 364.722C129.949 352.73 124.258 336.635 124.258 336.635ZM204.154 351.341L179.534 340.971C179.534 340.971 174.823 353.124 184.946 353.756C184.946 353.756 199.092 366.664 208.673 362.873C215.046 360.351 212.681 358.425 208.097 354.691C206.896 353.713 205.542 352.611 204.154 351.341Z" fill="#0D0B6D"/>
<path d="M148.885 235.858C155.553 235.193 162.509 239.105 164.512 246.604C173.411 279.906 186.602 330.602 188.35 337.946L204.154 351.341C204.154 351.341 202.474 353.856 198.275 354.276C194.076 354.695 179.444 341.636 179.444 341.636L179.563 341.551L147.52 275.139C138.088 305.452 127.746 338.586 126.282 342.839C128.111 350.085 130.355 361.452 126.571 361.875C121 362.499 116.212 343.835 116.212 343.835L116.267 343.79L125.342 264.679L106.493 259.201L114.62 242.523L135.361 234.371C140.248 232.449 145.158 233.318 148.885 235.858Z" fill="#72A065"/>
<path opacity="0.20266" d="M147.518 275.144C147.518 275.144 156.319 251.901 155.071 244.264C153.822 236.627 145.208 234.912 145.208 234.912" stroke="black" stroke-width="3"/>
<path d="M76.7172 217.717C76.7172 217.717 59.5912 235.458 64.7128 250.498C70.2034 266.62 122.885 264.441 122.885 264.441C122.885 264.441 133.158 240.025 159.909 238.47L109.439 218.242L76.7172 217.717Z" fill="#2F2F3D"/>
<path fill-rule="evenodd" clip-rule="evenodd" d="M374.069 269.489L399.55 371.826H393.598L368.116 269.489H374.069Z" fill="#CCE3FF"/>
<path d="M343.995 320.177L329.898 270.528" stroke="#B6D4FF" stroke-width="7"/>
<path d="M355.025 270.528L318.295 320.039" stroke="#B6D4FF" stroke-width="7"/>
<path fill-rule="evenodd" clip-rule="evenodd" d="M355.025 270.528L407.699 319.485Z" fill="white"/>
<path d="M355.025 270.528L407.699 319.485" stroke="#B6D4FF" stroke-width="7"/>
<path fill-rule="evenodd" clip-rule="evenodd" d="M333.004 269.427L307.889 371.825H302.022L327.136 269.427H333.004Z" fill="#CCE3FF"/>
<path d="M396.174 270.528L343.995 319.485" stroke="#B6D4FF" stroke-width="7"/>
<path fill-rule="evenodd" clip-rule="evenodd" d="M399.206 269.489L424.687 371.826H418.734L393.252 269.489H399.206Z" fill="#DCEEFF"/>
<path fill-rule="evenodd" clip-rule="evenodd" d="M358.1 269.489L332.618 371.826H326.664L352.146 269.489H358.1Z" fill="#DCEEFF"/>
<path fill-rule="evenodd" clip-rule="evenodd" d="M298.243 258.084V258.867C298.243 265.406 303.555 270.702 310.101 270.702H402.987C417.315 270.702 428.341 257.574 426.364 242.864L415.877 160.904C414.969 154.116 409.373 149.065 402.76 149.065H375.231C368.623 149.065 363.027 154.116 362.114 160.904L351.627 242.864C351.547 243.45 351.49 244.035 351.457 244.616L351.4 244.606C351.4 244.606 349.461 258.084 331.429 258.084H298.243Z" fill="#DCEEFF"/>
<path d="M354.766 159.467L355.115 147.483C355.115 147.483 340.467 148.642 337.334 147.024C337.334 147.024 333.956 129.372 338.164 116.12L369.076 112.525L371.275 130.197C372.316 127.144 380.444 123.645 382.69 128.017C387.558 137.492 370.152 143.872 370.152 143.872L371.919 159.612" fill="#5E93D1"/>
<path opacity="0.399344" fill-rule="evenodd" clip-rule="evenodd" d="M355.115 147.483L364.993 145.377L355.163 151.979L355.115 147.483Z" fill="black"/>
<path fill-rule="evenodd" clip-rule="evenodd" d="M346.968 127.898L343.554 136.194L347.645 136.246L346.968 127.898Z" fill="#2437A8"/>
<path fill-rule="evenodd" clip-rule="evenodd" d="M350.859 130.256C350.656 131.373 351.402 132.442 352.526 132.644C353.65 132.846 354.725 132.104 354.929 130.988C355.132 129.87 354.385 128.801 353.262 128.599C352.138 128.397 351.062 129.139 350.859 130.256" fill="#0D0B6D"/>
<path fill-rule="evenodd" clip-rule="evenodd" d="M340.124 130.256C339.921 131.373 340.667 132.442 341.79 132.644C342.914 132.846 343.99 132.104 344.193 130.988C344.397 129.87 343.65 128.801 342.527 128.599C341.403 128.397 340.327 129.139 340.124 130.256" fill="#0D0B6D"/>
<path fill-rule="evenodd" clip-rule="evenodd" d="M351.212 138.595C351.212 138.595 349.782 140.9 346.95 140.705Z" fill="white"/>
<path d="M351.212 138.595C351.212 138.595 349.782 140.9 346.95 140.705" stroke="#252535" stroke-width="4"/>
<path d="M377.117 126.42C378.49 121.345 383.457 102.613 382.872 99.4148C382.195 95.7087 379.6 91.159 366.266 86.3871C354.968 82.3441 348.595 85.2717 346.665 87.7628C343.728 91.5532 338.164 116.12 338.164 116.12C338.164 116.12 342.768 119.377 359.092 118.815C359.092 118.815 356.832 128.586 366.096 128.024C366.096 128.024 365.103 131.315 369.586 132.35C372.046 128.547 375.31 127.01 377.117 126.42V126.42Z" fill="#19141E"/>
<path fill-rule="evenodd" clip-rule="evenodd" d="M322.253 237.251C322.253 237.251 327.748 237.919 328.794 240.298C331.786 247.103 325.587 259.267 325.587 259.267C325.587 259.267 328.213 257.718 328.736 259.073C328.969 259.676 329.496 264.495 319.656 264.82C318.611 264.854 316.097 262.798 316.097 262.798C316.097 262.798 317.93 266.183 315.124 266.848C315.124 266.848 310.602 260.295 310.533 258.836C310.464 257.378 311.915 249.996 312.7 248.506C313.484 247.015 322.253 237.251 322.253 237.251ZM398.428 245.648L400.212 242.26L410.265 241.141C410.991 242.257 412.36 244.874 412.989 246.606C414.206 249.96 414.338 251.368 414.543 253.545C414.595 254.093 414.651 254.689 414.73 255.377C415.056 258.21 415.078 261.058 413.971 264.849C413.259 267.285 412.5 269.356 412.104 269.269C411.107 269.049 411.07 267.807 411.07 267.807L411.539 265.501L411.752 263.249C411.752 263.249 408.212 273.22 407.912 273.165C406.851 272.97 406.683 271.223 406.683 271.223C406.683 271.223 405.574 274.664 405.015 274.539C403.595 274.222 403.729 272.628 403.729 272.628C403.729 272.628 403.281 273.009 402.937 272.913C401.65 272.553 401.689 270.341 401.712 269.046C401.713 268.943 401.715 268.846 401.716 268.755C401.716 268.755 402.285 264.679 402.169 263.422C401.576 257.02 400.555 255.498 399.995 254.664C399.942 254.585 399.893 254.512 399.849 254.442C398.97 255.022 398.644 256.016 398.299 257.071C398.047 257.839 397.785 258.639 397.292 259.335C395.792 261.455 391.607 263.457 393.947 258.601C395.246 255.904 395.569 254.245 395.869 252.705C396.045 251.802 396.212 250.939 396.565 249.933C397.517 247.209 398.428 245.648 398.428 245.648Z" fill="#5E93D1"/>
<path opacity="0.147531" d="M323.577 246.042C323.577 246.042 322.197 251.087 317.458 252.659C315.8 253.209 316.215 259.698 312.153 258.922" stroke="black" stroke-width="3"/>
<path fill-rule="evenodd" clip-rule="evenodd" d="M376.049 160.142L373.713 152.109L362.045 152.832L358.002 159.434L353.959 153.331L351.051 153.509L350.072 161.159C349.549 161.373 349.049 161.587 348.57 161.801C347.909 162.097 347.289 162.389 346.706 162.685L346.673 162.702C339.354 166.395 337.596 170.159 335.479 174.695C335.207 175.276 334.93 175.87 334.634 176.477C331.297 183.326 327.842 204.366 327.842 204.366L313.36 240.682L331.114 250.51L335.479 242.103L335.369 230.879H361.278L364.15 230.875H389.622L390.002 217.054L394.624 244.777L414.915 245.73C414.915 245.73 415.315 216.86 411.452 200.158C408.992 189.519 396.974 169.749 385.592 162.953C383.772 161.866 381.357 161.102 378.661 160.575C377.814 160.408 376.94 160.264 376.049 160.142ZM360.795 233.749C360.795 234.669 361.544 235.414 362.468 235.414C363.392 235.414 364.142 234.669 364.142 233.749C364.142 232.83 363.392 232.085 362.468 232.085C361.544 232.085 360.795 232.83 360.795 233.749ZM344.059 235.507C343.134 235.507 342.385 234.762 342.385 233.842C342.385 232.922 343.134 232.177 344.059 232.177C344.983 232.177 345.732 232.922 345.732 233.842C345.732 234.762 344.983 235.507 344.059 235.507Z" fill="#FCBDA4"/>
<path opacity="0.197266" d="M389.914 220.178L386.179 200.782L376.943 185.217" stroke="black" stroke-width="5"/>
<path opacity="0.195754" d="M336.185 230.959L334.42 202.698" stroke="black" stroke-width="5"/>
<path fill-rule="evenodd" clip-rule="evenodd" d="M364.634 154.464L367.792 164.527L359.314 160.774L364.634 154.464ZM352.034 155.271L357.121 160.676L350.313 164.651L352.034 155.271Z" fill="#EA847A"/>
<path opacity="0.198451" fill-rule="evenodd" clip-rule="evenodd" d="M396.694 241.529C396.694 242.425 397.425 243.152 398.326 243.152C399.227 243.152 399.958 242.425 399.958 241.529C399.958 240.632 399.227 239.906 398.326 239.906C397.425 239.906 396.694 240.632 396.694 241.529" fill="black"/>
<path opacity="0.199033" fill-rule="evenodd" clip-rule="evenodd" d="M316.233 239.406C316.233 240.303 316.964 241.029 317.865 241.029C318.766 241.029 319.497 240.303 319.497 239.406C319.497 238.51 318.766 237.783 317.865 237.783C316.964 237.783 316.233 238.51 316.233 239.406" fill="black"/>
<path opacity="0.202567" d="M414.925 236.971L393.251 236.015" stroke="black" stroke-width="4"/>
<path opacity="0.198684" d="M335.369 242.486L316.709 232.279" stroke="black" stroke-width="4"/>
<path opacity="0.197661" fill-rule="evenodd" clip-rule="evenodd" d="M361.278 230.879L364.15 230.875C364.317 196.275 370.016 173.191 378.661 160.575V160.571L375.748 159.898C375.703 159.959 375.658 160.019 375.617 160.084C366.789 172.42 360.947 195.386 361.278 230.879" fill="black"/>
<path opacity="0.196777" fill-rule="evenodd" clip-rule="evenodd" d="M341.916 230.879H344.841C340.737 197.598 343.332 174.57 350.08 161.156C350.092 161.123 350.108 161.095 350.124 161.062L348.57 161.801L346.706 162.685L346.673 162.702C339.624 175.78 337.245 196.871 341.916 230.879" fill="black"/>
<path fill-rule="evenodd" clip-rule="evenodd" d="M265.065 352.55L264.948 341.824L277.893 334.859L279.772 365.519H234.922C242.553 356.337 265.065 352.55 265.065 352.55ZM336.887 352.125L336.764 339.368L350.744 338.659L352.016 351.42L355.267 365.417H322.759C326.846 353.526 336.887 352.125 336.887 352.125Z" fill="#0D0B6D"/>
<path fill-rule="evenodd" clip-rule="evenodd" d="M336.764 339.368L350.473 334.967L352.016 351.42L336.887 352.125L336.764 339.368ZM264.948 341.824L277.894 337.669L278.937 351.884L265.065 352.549L264.948 341.824Z" fill="#5E93D1"/>
<path fill-rule="evenodd" clip-rule="evenodd" d="M351.737 229.014H389.669V239.085C389.669 251.601 379.401 261.747 366.735 261.747H355.485H350.012L354.003 346.353H330.423L321.654 261.747H280.694L281.798 346.353H257.815L246.487 259.571C244.459 243.343 257.146 229.014 273.542 229.014H338.191H351.737Z" fill="#19141E"/>
<path opacity="0.101632" fill-rule="evenodd" clip-rule="evenodd" d="M389.669 229.014H338.191C327.556 229.014 319.242 238.079 320.285 248.536L330.423 346.353H354.003L350.012 261.747H366.735C379.401 261.747 389.669 251.601 389.669 239.085V229.014Z" fill="white"/>
<path fill-rule="evenodd" clip-rule="evenodd" d="M104.725 373.747H107.962L127.856 241.154H116.661L104.725 373.747Z" fill="#B6D4FF"/>
<path fill-rule="evenodd" clip-rule="evenodd" d="M161.402 373.747H164.639L184.534 241.154H173.338L161.402 373.747Z" fill="#B6D4FF"/>
<path fill-rule="evenodd" clip-rule="evenodd" d="M91.6401 241.154H274.468V231.54H91.6401V241.154Z" fill="#B6D4FF"/>
<path fill-rule="evenodd" clip-rule="evenodd" d="M261.246 241.154H332.574V231.54H261.246V241.154Z" fill="#DCEEFF"/>
<path fill-rule="evenodd" clip-rule="evenodd" d="M323.522 373.747H326.76L314.823 241.154H303.628L323.522 373.747Z" fill="#DCEEFF"/>
<path fill-rule="evenodd" clip-rule="evenodd" d="M266.626 373.747H269.864L257.927 241.154H246.732L266.626 373.747Z" fill="#DCEEFF"/>
<rect x="133" y="10" width="271" height="65.3266" rx="20" fill="#0F9D58"/>
<path d="M172.395 39H170.145V21.9375H172.395V39ZM176.332 26.7422L175.102 25.8984C175.828 24.8828 176.203 23.8125 176.227 22.6875V21H178.371V22.5234C178.363 23.3047 178.168 24.0859 177.785 24.8672C177.41 25.6406 176.926 26.2656 176.332 26.7422ZM183.715 39H181.547V21H183.715V39ZM189.551 39H187.383V21H189.551V39ZM215.648 32.8008C215.648 34.7305 215.207 36.2852 214.324 37.4648C213.441 38.6445 212.246 39.2344 210.738 39.2344C209.199 39.2344 207.988 38.7461 207.105 37.7695V43.875H204.938V26.3203H206.918L207.023 27.7266C207.906 26.6328 209.133 26.0859 210.703 26.0859C212.227 26.0859 213.43 26.6602 214.312 27.8086C215.203 28.957 215.648 30.5547 215.648 32.6016V32.8008ZM213.48 32.5547C213.48 31.125 213.176 29.9961 212.566 29.168C211.957 28.3398 211.121 27.9258 210.059 27.9258C208.746 27.9258 207.762 28.5078 207.105 29.6719V35.7305C207.754 36.8867 208.746 37.4648 210.082 37.4648C211.121 37.4648 211.945 37.0547 212.555 36.2344C213.172 35.4062 213.48 34.1797 213.48 32.5547ZM226.242 39C226.117 38.75 226.016 38.3047 225.938 37.6641C224.93 38.7109 223.727 39.2344 222.328 39.2344C221.078 39.2344 220.051 38.8828 219.246 38.1797C218.449 37.4688 218.051 36.5703 218.051 35.4844C218.051 34.1641 218.551 33.1406 219.551 32.4141C220.559 31.6797 221.973 31.3125 223.793 31.3125H225.902V30.3164C225.902 29.5586 225.676 28.957 225.223 28.5117C224.77 28.0586 224.102 27.832 223.219 27.832C222.445 27.832 221.797 28.0273 221.273 28.418C220.75 28.8086 220.488 29.2812 220.488 29.8359H218.309C218.309 29.2031 218.531 28.5938 218.977 28.0078C219.43 27.4141 220.039 26.9453 220.805 26.6016C221.578 26.2578 222.426 26.0859 223.348 26.0859C224.809 26.0859 225.953 26.4531 226.781 27.1875C227.609 27.9141 228.039 28.918 228.07 30.1992V36.0352C228.07 37.1992 228.219 38.125 228.516 38.8125V39H226.242ZM222.645 37.3477C223.324 37.3477 223.969 37.1719 224.578 36.8203C225.188 36.4688 225.629 36.0117 225.902 35.4492V32.8477H224.203C221.547 32.8477 220.219 33.625 220.219 35.1797C220.219 35.8594 220.445 36.3906 220.898 36.7734C221.352 37.1562 221.934 37.3477 222.645 37.3477ZM235.43 35.8242L238.383 26.3203H240.703L235.605 40.957C234.816 43.0664 233.562 44.1211 231.844 44.1211L231.434 44.0859L230.625 43.9336V42.1758L231.211 42.2227C231.945 42.2227 232.516 42.0742 232.922 41.7773C233.336 41.4805 233.676 40.9375 233.941 40.1484L234.422 38.8594L229.898 26.3203H232.266L235.43 35.8242ZM241.312 42.3984L240.082 41.5547C240.816 40.5312 241.199 39.4766 241.23 38.3906V36.4336H243.352V38.1328C243.352 38.9219 243.156 39.7109 242.766 40.5C242.383 41.2891 241.898 41.9219 241.312 42.3984ZM263.273 36.0117L265.711 26.3203H267.879L264.188 39H262.43L259.348 29.3906L256.348 39H254.59L250.91 26.3203H253.066L255.562 35.8125L258.516 26.3203H260.262L263.273 36.0117ZM275.355 39.2344C273.637 39.2344 272.238 38.6719 271.16 37.5469C270.082 36.4141 269.543 34.9023 269.543 33.0117V32.6133C269.543 31.3555 269.781 30.2344 270.258 29.25C270.742 28.2578 271.414 27.4844 272.273 26.9297C273.141 26.3672 274.078 26.0859 275.086 26.0859C276.734 26.0859 278.016 26.6289 278.93 27.7148C279.844 28.8008 280.301 30.3555 280.301 32.3789V33.2812H271.711C271.742 34.5312 272.105 35.543 272.801 36.3164C273.504 37.082 274.395 37.4648 275.473 37.4648C276.238 37.4648 276.887 37.3086 277.418 36.9961C277.949 36.6836 278.414 36.2695 278.812 35.7539L280.137 36.7852C279.074 38.418 277.48 39.2344 275.355 39.2344ZM275.086 27.8672C274.211 27.8672 273.477 28.1875 272.883 28.8281C272.289 29.4609 271.922 30.3516 271.781 31.5H278.133V31.3359C278.07 30.2344 277.773 29.3828 277.242 28.7812C276.711 28.1719 275.992 27.8672 275.086 27.8672ZM293.859 37.4648C294.633 37.4648 295.309 37.2305 295.887 36.7617C296.465 36.293 296.785 35.707 296.848 35.0039H298.898C298.859 35.7305 298.609 36.4219 298.148 37.0781C297.688 37.7344 297.07 38.2578 296.297 38.6484C295.531 39.0391 294.719 39.2344 293.859 39.2344C292.133 39.2344 290.758 38.6602 289.734 37.5117C288.719 36.3555 288.211 34.7773 288.211 32.7773V32.4141C288.211 31.1797 288.438 30.082 288.891 29.1211C289.344 28.1602 289.992 27.4141 290.836 26.8828C291.688 26.3516 292.691 26.0859 293.848 26.0859C295.27 26.0859 296.449 26.5117 297.387 27.3633C298.332 28.2148 298.836 29.3203 298.898 30.6797H296.848C296.785 29.8594 296.473 29.1875 295.91 28.6641C295.355 28.1328 294.668 27.8672 293.848 27.8672C292.746 27.8672 291.891 28.2656 291.281 29.0625C290.68 29.8516 290.379 30.9961 290.379 32.4961V32.9062C290.379 34.3672 290.68 35.4922 291.281 36.2812C291.883 37.0703 292.742 37.4648 293.859 37.4648ZM309.164 39C309.039 38.75 308.938 38.3047 308.859 37.6641C307.852 38.7109 306.648 39.2344 305.25 39.2344C304 39.2344 302.973 38.8828 302.168 38.1797C301.371 37.4688 300.973 36.5703 300.973 35.4844C300.973 34.1641 301.473 33.1406 302.473 32.4141C303.48 31.6797 304.895 31.3125 306.715 31.3125H308.824V30.3164C308.824 29.5586 308.598 28.957 308.145 28.5117C307.691 28.0586 307.023 27.832 306.141 27.832C305.367 27.832 304.719 28.0273 304.195 28.418C303.672 28.8086 303.41 29.2812 303.41 29.8359H301.23C301.23 29.2031 301.453 28.5938 301.898 28.0078C302.352 27.4141 302.961 26.9453 303.727 26.6016C304.5 26.2578 305.348 26.0859 306.27 26.0859C307.73 26.0859 308.875 26.4531 309.703 27.1875C310.531 27.9141 310.961 28.918 310.992 30.1992V36.0352C310.992 37.1992 311.141 38.125 311.438 38.8125V39H309.164ZM305.566 37.3477C306.246 37.3477 306.891 37.1719 307.5 36.8203C308.109 36.4688 308.551 36.0117 308.824 35.4492V32.8477H307.125C304.469 32.8477 303.141 33.625 303.141 35.1797C303.141 35.8594 303.367 36.3906 303.82 36.7734C304.273 37.1562 304.855 37.3477 305.566 37.3477ZM316.441 26.3203L316.512 27.9141C317.48 26.6953 318.746 26.0859 320.309 26.0859C322.988 26.0859 324.34 27.5977 324.363 30.6211V39H322.195V30.6094C322.188 29.6953 321.977 29.0195 321.562 28.582C321.156 28.1445 320.52 27.9258 319.652 27.9258C318.949 27.9258 318.332 28.1133 317.801 28.4883C317.27 28.8633 316.855 29.3555 316.559 29.9648V39H314.391V26.3203H316.441ZM177.023 63.6367C177.023 63.0508 176.801 62.5977 176.355 62.2773C175.918 61.9492 175.148 61.668 174.047 61.4336C172.953 61.1992 172.082 60.918 171.434 60.5898C170.793 60.2617 170.316 59.8711 170.004 59.418C169.699 58.9648 169.547 58.4258 169.547 57.8008C169.547 56.7617 169.984 55.8828 170.859 55.1641C171.742 54.4453 172.867 54.0859 174.234 54.0859C175.672 54.0859 176.836 54.457 177.727 55.1992C178.625 55.9414 179.074 56.8906 179.074 58.0469H176.895C176.895 57.4531 176.641 56.9414 176.133 56.5117C175.633 56.082 175 55.8672 174.234 55.8672C173.445 55.8672 172.828 56.0391 172.383 56.3828C171.938 56.7266 171.715 57.1758 171.715 57.7305C171.715 58.2539 171.922 58.6484 172.336 58.9141C172.75 59.1797 173.496 59.4336 174.574 59.6758C175.66 59.918 176.539 60.207 177.211 60.543C177.883 60.8789 178.379 61.2852 178.699 61.7617C179.027 62.2305 179.191 62.8047 179.191 63.4844C179.191 64.6172 178.738 65.5273 177.832 66.2148C176.926 66.8945 175.75 67.2344 174.305 67.2344C173.289 67.2344 172.391 67.0547 171.609 66.6953C170.828 66.3359 170.215 65.8359 169.77 65.1953C169.332 64.5469 169.113 63.8477 169.113 63.0977H171.281C171.32 63.8242 171.609 64.4023 172.148 64.832C172.695 65.2539 173.414 65.4648 174.305 65.4648C175.125 65.4648 175.781 65.3008 176.273 64.9727C176.773 64.6367 177.023 64.1914 177.023 63.6367ZM192.727 60.8008C192.727 62.7305 192.285 64.2852 191.402 65.4648C190.52 66.6445 189.324 67.2344 187.816 67.2344C186.277 67.2344 185.066 66.7461 184.184 65.7695V71.875H182.016V54.3203H183.996L184.102 55.7266C184.984 54.6328 186.211 54.0859 187.781 54.0859C189.305 54.0859 190.508 54.6602 191.391 55.8086C192.281 56.957 192.727 58.5547 192.727 60.6016V60.8008ZM190.559 60.5547C190.559 59.125 190.254 57.9961 189.645 57.168C189.035 56.3398 188.199 55.9258 187.137 55.9258C185.824 55.9258 184.84 56.5078 184.184 57.6719V63.7305C184.832 64.8867 185.824 65.4648 187.16 65.4648C188.199 65.4648 189.023 65.0547 189.633 64.2344C190.25 63.4062 190.559 62.1797 190.559 60.5547ZM197.848 67H195.68V49H197.848V67ZM203.684 67H201.516V54.3203H203.684V67ZM201.34 50.957C201.34 50.6055 201.445 50.3086 201.656 50.0664C201.875 49.8242 202.195 49.7031 202.617 49.7031C203.039 49.7031 203.359 49.8242 203.578 50.0664C203.797 50.3086 203.906 50.6055 203.906 50.957C203.906 51.3086 203.797 51.6016 203.578 51.8359C203.359 52.0703 203.039 52.1875 202.617 52.1875C202.195 52.1875 201.875 52.0703 201.656 51.8359C201.445 51.6016 201.34 51.3086 201.34 50.957ZM210.105 51.25V54.3203H212.473V55.9961H210.105V63.8594C210.105 64.3672 210.211 64.75 210.422 65.0078C210.633 65.2578 210.992 65.3828 211.5 65.3828C211.75 65.3828 212.094 65.3359 212.531 65.2422V67C211.961 67.1562 211.406 67.2344 210.867 67.2344C209.898 67.2344 209.168 66.9414 208.676 66.3555C208.184 65.7695 207.938 64.9375 207.938 63.8594V55.9961H205.629V54.3203H207.938V51.25H210.105ZM220.395 60.543C220.395 59.3008 220.637 58.1836 221.121 57.1914C221.613 56.1992 222.293 55.4336 223.16 54.8945C224.035 54.3555 225.031 54.0859 226.148 54.0859C227.875 54.0859 229.27 54.6836 230.332 55.8789C231.402 57.0742 231.938 58.6641 231.938 60.6484V60.8008C231.938 62.0352 231.699 63.1445 231.223 64.1289C230.754 65.1055 230.078 65.8672 229.195 66.4141C228.32 66.9609 227.312 67.2344 226.172 67.2344C224.453 67.2344 223.059 66.6367 221.988 65.4414C220.926 64.2461 220.395 62.6641 220.395 60.6953V60.543ZM222.574 60.8008C222.574 62.207 222.898 63.3359 223.547 64.1875C224.203 65.0391 225.078 65.4648 226.172 65.4648C227.273 65.4648 228.148 65.0352 228.797 64.1758C229.445 63.3086 229.77 62.0977 229.77 60.543C229.77 59.1523 229.438 58.0273 228.773 57.168C228.117 56.3008 227.242 55.8672 226.148 55.8672C225.078 55.8672 224.215 56.293 223.559 57.1445C222.902 57.9961 222.574 59.2148 222.574 60.8008ZM236.707 54.3203L236.777 55.9141C237.746 54.6953 239.012 54.0859 240.574 54.0859C243.254 54.0859 244.605 55.5977 244.629 58.6211V67H242.461V58.6094C242.453 57.6953 242.242 57.0195 241.828 56.582C241.422 56.1445 240.785 55.9258 239.918 55.9258C239.215 55.9258 238.598 56.1133 238.066 56.4883C237.535 56.8633 237.121 57.3555 236.824 57.9648V67H234.656V54.3203H236.707ZM261.234 63.6367C261.234 63.0508 261.012 62.5977 260.566 62.2773C260.129 61.9492 259.359 61.668 258.258 61.4336C257.164 61.1992 256.293 60.918 255.645 60.5898C255.004 60.2617 254.527 59.8711 254.215 59.418C253.91 58.9648 253.758 58.4258 253.758 57.8008C253.758 56.7617 254.195 55.8828 255.07 55.1641C255.953 54.4453 257.078 54.0859 258.445 54.0859C259.883 54.0859 261.047 54.457 261.938 55.1992C262.836 55.9414 263.285 56.8906 263.285 58.0469H261.105C261.105 57.4531 260.852 56.9414 260.344 56.5117C259.844 56.082 259.211 55.8672 258.445 55.8672C257.656 55.8672 257.039 56.0391 256.594 56.3828C256.148 56.7266 255.926 57.1758 255.926 57.7305C255.926 58.2539 256.133 58.6484 256.547 58.9141C256.961 59.1797 257.707 59.4336 258.785 59.6758C259.871 59.918 260.75 60.207 261.422 60.543C262.094 60.8789 262.59 61.2852 262.91 61.7617C263.238 62.2305 263.402 62.8047 263.402 63.4844C263.402 64.6172 262.949 65.5273 262.043 66.2148C261.137 66.8945 259.961 67.2344 258.516 67.2344C257.5 67.2344 256.602 67.0547 255.82 66.6953C255.039 66.3359 254.426 65.8359 253.98 65.1953C253.543 64.5469 253.324 63.8477 253.324 63.0977H255.492C255.531 63.8242 255.82 64.4023 256.359 64.832C256.906 65.2539 257.625 65.4648 258.516 65.4648C259.336 65.4648 259.992 65.3008 260.484 64.9727C260.984 64.6367 261.234 64.1914 261.234 63.6367ZM276.938 60.8008C276.938 62.7305 276.496 64.2852 275.613 65.4648C274.73 66.6445 273.535 67.2344 272.027 67.2344C270.488 67.2344 269.277 66.7461 268.395 65.7695V71.875H266.227V54.3203H268.207L268.312 55.7266C269.195 54.6328 270.422 54.0859 271.992 54.0859C273.516 54.0859 274.719 54.6602 275.602 55.8086C276.492 56.957 276.938 58.5547 276.938 60.6016V60.8008ZM274.77 60.5547C274.77 59.125 274.465 57.9961 273.855 57.168C273.246 56.3398 272.41 55.9258 271.348 55.9258C270.035 55.9258 269.051 56.5078 268.395 57.6719V63.7305C269.043 64.8867 270.035 65.4648 271.371 65.4648C272.41 65.4648 273.234 65.0547 273.844 64.2344C274.461 63.4062 274.77 62.1797 274.77 60.5547ZM282.059 67H279.891V49H282.059V67ZM287.895 67H285.727V54.3203H287.895V67ZM285.551 50.957C285.551 50.6055 285.656 50.3086 285.867 50.0664C286.086 49.8242 286.406 49.7031 286.828 49.7031C287.25 49.7031 287.57 49.8242 287.789 50.0664C288.008 50.3086 288.117 50.6055 288.117 50.957C288.117 51.3086 288.008 51.6016 287.789 51.8359C287.57 52.0703 287.25 52.1875 286.828 52.1875C286.406 52.1875 286.086 52.0703 285.867 51.8359C285.656 51.6016 285.551 51.3086 285.551 50.957ZM294.316 51.25V54.3203H296.684V55.9961H294.316V63.8594C294.316 64.3672 294.422 64.75 294.633 65.0078C294.844 65.2578 295.203 65.3828 295.711 65.3828C295.961 65.3828 296.305 65.3359 296.742 65.2422V67C296.172 67.1562 295.617 67.2344 295.078 67.2344C294.109 67.2344 293.379 66.9414 292.887 66.3555C292.395 65.7695 292.148 64.9375 292.148 63.8594V55.9961H289.84V54.3203H292.148V51.25H294.316ZM310.453 64.0117L312.891 54.3203H315.059L311.367 67H309.609L306.527 57.3906L303.527 67H301.77L298.09 54.3203H300.246L302.742 63.8125L305.695 54.3203H307.441L310.453 64.0117ZM319.629 67H317.461V54.3203H319.629V67ZM317.285 50.957C317.285 50.6055 317.391 50.3086 317.602 50.0664C317.82 49.8242 318.141 49.7031 318.562 49.7031C318.984 49.7031 319.305 49.8242 319.523 50.0664C319.742 50.3086 319.852 50.6055 319.852 50.957C319.852 51.3086 319.742 51.6016 319.523 51.8359C319.305 52.0703 318.984 52.1875 318.562 52.1875C318.141 52.1875 317.82 52.0703 317.602 51.8359C317.391 51.6016 317.285 51.3086 317.285 50.957ZM330.492 63.6367C330.492 63.0508 330.27 62.5977 329.824 62.2773C329.387 61.9492 328.617 61.668 327.516 61.4336C326.422 61.1992 325.551 60.918 324.902 60.5898C324.262 60.2617 323.785 59.8711 323.473 59.418C323.168 58.9648 323.016 58.4258 323.016 57.8008C323.016 56.7617 323.453 55.8828 324.328 55.1641C325.211 54.4453 326.336 54.0859 327.703 54.0859C329.141 54.0859 330.305 54.457 331.195 55.1992C332.094 55.9414 332.543 56.8906 332.543 58.0469H330.363C330.363 57.4531 330.109 56.9414 329.602 56.5117C329.102 56.082 328.469 55.8672 327.703 55.8672C326.914 55.8672 326.297 56.0391 325.852 56.3828C325.406 56.7266 325.184 57.1758 325.184 57.7305C325.184 58.2539 325.391 58.6484 325.805 58.9141C326.219 59.1797 326.965 59.4336 328.043 59.6758C329.129 59.918 330.008 60.207 330.68 60.543C331.352 60.8789 331.848 61.2852 332.168 61.7617C332.496 62.2305 332.66 62.8047 332.66 63.4844C332.66 64.6172 332.207 65.5273 331.301 66.2148C330.395 66.8945 329.219 67.2344 327.773 67.2344C326.758 67.2344 325.859 67.0547 325.078 66.6953C324.297 66.3359 323.684 65.8359 323.238 65.1953C322.801 64.5469 322.582 63.8477 322.582 63.0977H324.75C324.789 63.8242 325.078 64.4023 325.617 64.832C326.164 65.2539 326.883 65.4648 327.773 65.4648C328.594 65.4648 329.25 65.3008 329.742 64.9727C330.242 64.6367 330.492 64.1914 330.492 63.6367ZM341.613 56.2656C341.285 56.2109 340.93 56.1836 340.547 56.1836C339.125 56.1836 338.16 56.7891 337.652 58V67H335.484V54.3203H337.594L337.629 55.7852C338.34 54.6523 339.348 54.0859 340.652 54.0859C341.074 54.0859 341.395 54.1406 341.613 54.25V56.2656Z" fill="#F2F2F2"/>
<path d="M133 58.995H171.797L155.004 94.6668L142.498 120.432C140.18 125.207 133 123.557 133 118.249V58.995Z" fill="#0F9D58"/>
</g>
<defs>
<clipPath id="clip0">
<rect width="443" height="378" fill="white"/>
</clipPath>
</defs>
</svg>
